<svg width="422" height="422" viewBox="0 0 422 422" fill="none" xmlns="http://www.w3.org/2000/svg">
<path d="M380.914 376.922C380.914 388.898 304.836 398.613 211 398.613C117.164 398.613 41.0859 388.898 41.0859 376.922C41.0859 364.946 117.164 355.231 211 355.231C304.836 355.231 380.914 364.946 380.914 376.922Z" fill="#EBEBEB"/>
<path d="M337.718 275.684C337.718 275.684 323.716 272.511 316.044 265.438C308.372 258.365 304.076 245.697 304.076 245.697C309.399 246.717 314.646 248.096 319.783 249.824C321.71 251.812 323.314 254.091 324.535 256.576C324.655 254.977 324.655 253.372 324.535 251.774C326.328 252.547 328.007 253.563 329.523 254.795C335.912 260.332 337.718 275.684 337.718 275.684Z" fill="#54B726"/>
<path d="M312.82 251.85C310.912 250.533 308.971 249.259 307.072 247.925C306.954 247.849 307.072 247.663 307.182 247.739C310.794 249.892 314.347 252.196 317.791 254.61C318.989 255.454 320.171 256.323 321.336 257.217L321.091 256.804C320.669 256.103 320.247 255.411 319.783 254.719C318.906 253.316 317.912 251.989 316.812 250.752C316.77 250.71 316.812 250.643 316.879 250.685C317.968 251.942 319.057 253.217 320.053 254.525C320.525 255.158 320.964 255.816 321.386 256.483C321.606 256.838 321.817 257.184 322.011 257.547L322.222 257.901C324.037 259.327 325.8 260.813 327.48 262.374C328.521 263.342 329.525 264.344 330.493 265.379C329.945 263.691 329.472 262.003 328.847 260.315C328.847 260.256 328.923 260.231 328.94 260.315C329.548 262.062 330.215 263.826 330.687 265.624C331.759 266.78 332.789 267.978 333.751 269.236L333.7 269.008C333.54 268.341 333.38 267.683 333.202 267.033C332.865 265.767 332.485 264.501 332.063 263.261C331.256 260.683 329.98 258.277 328.299 256.162C328.257 256.112 328.299 256.044 328.366 256.095C330.99 259.368 332.826 263.2 333.734 267.295C333.886 267.886 334.021 268.485 334.156 269.084C334.232 269.405 334.316 269.726 334.367 270.055C334.789 270.629 335.211 271.203 335.608 271.793C337.985 275.446 339.965 279.342 341.516 283.415C343.276 287.983 344.786 292.643 346.04 297.375C346.034 297.39 346.025 297.403 346.012 297.412C345.999 297.421 345.984 297.426 345.968 297.426C345.952 297.426 345.937 297.421 345.924 297.412C345.911 297.403 345.901 297.39 345.896 297.375C343.153 289.18 340.359 280.866 335.667 273.549C334.678 272.002 333.61 270.506 332.468 269.067C330.148 268.919 327.858 268.465 325.657 267.717C323.256 266.903 320.965 265.795 318.837 264.417C317.625 263.597 316.456 262.716 315.335 261.775C315.327 261.772 315.321 261.768 315.315 261.762C315.31 261.756 315.306 261.749 315.303 261.742C315.301 261.734 315.301 261.726 315.302 261.718C315.304 261.71 315.307 261.703 315.312 261.696C315.317 261.69 315.323 261.685 315.33 261.682C315.338 261.678 315.346 261.676 315.354 261.677C315.362 261.677 315.369 261.679 315.376 261.683C315.383 261.687 315.389 261.692 315.394 261.699C317.35 263.279 319.511 264.587 321.817 265.59C324.08 266.629 326.448 267.421 328.881 267.953C329.911 268.181 330.966 268.35 332.012 268.493C330.717 266.897 329.34 265.371 327.885 263.919C327.413 263.446 326.923 262.99 326.433 262.535C324.802 261.393 323.07 260.402 321.26 259.572C318.964 258.458 316.702 257.285 314.432 256.129C313.149 255.479 311.9 254.812 310.592 254.179C310.533 254.179 310.592 254.078 310.642 254.103C312.938 255.217 315.276 256.255 317.597 257.319C319.918 258.382 322.002 259.327 324.096 260.501L324.366 260.661C322.467 258.973 320.5 257.437 318.458 255.918C316.618 254.55 314.736 253.2 312.82 251.85Z" fill="#263238"/>
<path d="M313.622 259.108C314.761 259.606 315.918 260.045 317.049 260.577C318.18 261.108 319.302 261.75 320.425 262.4C320.43 262.402 320.434 262.406 320.438 262.411C320.441 262.415 320.444 262.42 320.445 262.426C320.447 262.431 320.447 262.437 320.447 262.443C320.446 262.448 320.444 262.454 320.441 262.459C320.439 262.464 320.435 262.468 320.431 262.472C320.426 262.475 320.421 262.478 320.415 262.479C320.41 262.481 320.404 262.481 320.399 262.481C320.393 262.48 320.387 262.478 320.382 262.476C319.268 261.944 318.137 261.446 317.006 260.889C315.875 260.332 314.753 259.707 313.588 259.201C313.538 259.108 313.563 259.049 313.622 259.108Z" fill="#263238"/>
<path d="M383.176 205.092C380.576 208.426 379.099 212.497 378.956 216.722C378.913 217.98 379.108 219.735 379.259 221.786C375.763 223.815 372.666 226.463 370.119 229.602C372.914 227.977 376.124 227.209 379.352 227.391C379.28 228.808 379.103 230.219 378.821 231.611C376.794 231.617 374.788 232.015 372.913 232.784C374.751 232.764 376.573 233.127 378.264 233.847C375.732 241.789 368.355 249.951 347.88 253.411C345.711 243.671 346.994 233.479 351.509 224.58C357.662 212.485 383.176 205.092 383.176 205.092Z" fill="#54B726"/>
<path d="M340.807 287.373C341.161 283.997 341.603 280.621 342.132 277.245C343.169 270.496 344.546 263.803 346.259 257.192C347.064 254.089 348.053 251.037 349.221 248.052C349.163 247.508 349.137 246.961 349.146 246.414C349.146 245.756 349.146 245.098 349.146 244.439C349.146 243.131 349.221 241.823 349.331 240.515C349.539 237.922 349.959 235.35 350.589 232.826C350.969 231.366 351.433 229.931 351.829 228.488C351.833 228.479 351.84 228.471 351.848 228.465C351.856 228.46 351.866 228.457 351.876 228.457C351.886 228.457 351.895 228.46 351.904 228.465C351.912 228.471 351.918 228.479 351.922 228.488C351.239 231.007 350.731 233.57 350.403 236.16C350.04 238.709 349.812 241.275 349.719 243.848C349.719 244.549 349.677 245.258 349.677 245.958C349.677 246.262 349.677 246.566 349.677 246.861C350.686 244.415 351.838 242.031 353.129 239.721C355.211 236.06 357.555 232.554 360.143 229.23C360.148 228.842 360.205 228.456 360.312 228.082C360.405 227.627 360.506 227.171 360.607 226.707C360.818 225.778 361.054 224.842 361.308 223.922C361.814 222.065 362.489 220.267 363.072 218.436C363.075 218.427 363.082 218.419 363.09 218.413C363.098 218.408 363.108 218.405 363.118 218.405C363.128 218.405 363.137 218.408 363.146 218.413C363.154 218.419 363.16 218.427 363.164 218.436C362.624 220.25 362.261 222.132 361.848 223.981C361.637 224.892 361.443 225.804 361.24 226.724C361.139 227.179 361.038 227.635 360.945 228.091C360.945 228.091 360.945 228.167 360.945 228.201C361.772 227.154 362.616 226.124 363.477 225.112C367.384 220.52 371.672 216.283 375.993 212.089C376.525 211.565 377.065 211.067 377.605 210.553C377.605 210.553 377.715 210.553 377.673 210.629C373.546 214.933 369.486 219.28 365.637 223.837C364.717 224.926 363.823 226.023 362.936 227.129L364.338 226.2C365.528 225.424 366.734 224.664 367.975 223.972C369.216 223.28 370.507 222.588 371.748 221.955C372.989 221.322 374.466 220.773 375.74 220.039C375.791 220.039 375.841 220.098 375.782 220.124C374.487 220.721 373.238 221.412 372.043 222.191C370.794 222.934 369.553 223.677 368.33 224.453C367.106 225.23 365.916 225.972 364.717 226.749C363.721 227.399 362.742 228.108 361.704 228.699C359.329 231.751 357.137 234.942 355.138 238.253C353.903 240.34 352.777 242.49 351.762 244.692L352.496 244.372L354.378 243.528C355.577 242.996 356.792 242.473 357.999 241.949C360.295 240.945 362.633 240.034 364.886 238.936C366.156 238.337 367.386 237.655 368.566 236.894C368.617 236.894 368.659 236.894 368.608 236.978C364.388 239.873 359.696 241.907 355.054 243.967L353.036 244.861C352.479 245.106 351.922 245.376 351.348 245.595C349.97 248.675 348.811 251.848 347.88 255.09C346.049 261.614 344.562 268.229 343.423 274.908C342.25 281.601 341.457 288.336 340.841 295.105C340.765 295.949 340.689 296.793 340.587 297.637C340.576 297.699 340.543 297.755 340.495 297.796C340.446 297.837 340.385 297.859 340.322 297.859C340.258 297.859 340.197 297.837 340.148 297.796C340.1 297.755 340.067 297.699 340.056 297.637C340.132 294.227 340.444 290.792 340.807 287.373Z" fill="#263238"/>
<path d="M353.273 230.792C353.644 228.707 354.201 226.673 354.758 224.631C354.758 224.572 354.868 224.631 354.851 224.631C354.336 226.631 353.965 228.673 353.585 230.699C353.205 232.725 352.868 234.851 352.572 236.936C352.572 236.936 352.513 236.978 352.513 236.936C352.65 234.875 352.903 232.824 353.273 230.792Z" fill="#263238"/>
<path d="M362.076 236.438C363.502 235.494 364.991 234.648 366.532 233.906C367.275 233.526 368.035 233.155 368.786 232.792C369.537 232.429 370.381 232.1 371.158 231.712C371.208 231.712 371.25 231.762 371.158 231.788C370.406 232.168 369.697 232.632 368.963 233.02L366.684 234.269C365.191 235.071 363.714 235.957 362.144 236.615C362.126 236.61 362.11 236.601 362.096 236.589C362.082 236.576 362.072 236.561 362.065 236.544C362.059 236.527 362.056 236.508 362.058 236.49C362.06 236.471 362.066 236.454 362.076 236.438Z" fill="#263238"/>
<path opacity="0.1" d="M337.465 251.428C337.465 251.428 324.509 248.33 318.559 239.612C312.879 231.315 311.039 217.161 310.896 215.912C311.123 217.06 313.799 229.416 322.619 235.189C329.379 239.629 335.912 243.258 337.465 251.428Z" fill="#263238"/>
<path d="M337.465 251.428C337.465 251.428 324.509 248.33 318.559 239.612C312.879 231.315 311.039 217.161 310.896 215.912C310.892 215.884 310.892 215.856 310.896 215.828C310.896 215.828 317.107 224.664 323.64 226.918C330.173 229.171 339.338 236.987 337.465 251.428Z" fill="#54B726"/>
<path d="M313.175 220.723C314.337 223.104 315.678 225.395 317.184 227.576C318.693 229.645 320.486 231.492 322.509 233.062C324.273 234.463 326.13 235.729 327.911 237.096V237.029C327.573 236.539 327.219 236.05 326.848 235.586C326.105 234.632 325.295 233.737 324.476 232.851C322.872 231.104 321.226 229.391 319.783 227.5C318.979 226.448 318.283 225.317 317.707 224.124C317.707 224.065 317.766 224.04 317.791 224.124C319.893 228.504 324.096 231.307 327.075 235.003C327.499 235.529 327.896 236.075 328.265 236.641C328.563 237.051 328.815 237.492 329.017 237.957C330.658 239.273 332.142 240.774 333.439 242.43C333.327 241.575 333.152 240.729 332.916 239.898C332.617 238.744 332.153 237.638 331.54 236.615C331.54 236.565 331.591 236.506 331.625 236.565C332.25 237.59 332.757 238.683 333.135 239.822C333.409 240.73 333.568 241.669 333.608 242.616C334.25 243.487 334.836 244.398 335.363 245.342C335.304 245.064 335.254 244.785 335.203 244.498C334.941 243.207 334.663 241.916 334.359 240.641C333.748 238.047 332.694 235.577 331.245 233.341C331.203 233.29 331.245 233.239 331.321 233.29C332.807 235.493 333.969 237.897 334.773 240.43C335.186 241.705 335.515 242.962 335.811 244.304C335.954 244.937 336.081 245.579 336.199 246.22C336.267 246.549 336.334 246.895 336.393 247.233C337.676 250.056 338.677 252.999 339.381 256.019C340.651 261.415 341.573 266.887 342.141 272.401C342.81 278.174 343.109 283.984 343.035 289.796C343.035 290.53 342.976 291.256 342.943 291.982C342.943 292.167 342.647 292.201 342.639 291.982C342.512 289.104 342.436 286.226 342.267 283.356C342.099 280.486 341.845 277.617 341.542 274.747C340.95 269.117 340.049 263.524 338.841 257.994C337.786 253.259 336.427 248.49 333.836 244.338C332.549 242.271 330.975 240.399 329.16 238.776C327.345 237.147 325.362 235.721 323.446 234.21C321.505 232.732 319.743 231.033 318.197 229.146C316.615 227.053 315.236 224.815 314.078 222.461L313.149 220.706C313.065 220.723 313.124 220.672 313.175 220.723Z" fill="#263238"/>
<path d="M315.411 222.63C316.264 224.379 317.228 226.07 318.298 227.694C318.298 227.694 318.298 227.77 318.239 227.694C317.125 226.091 316.149 224.397 315.318 222.63C315.293 222.605 315.386 222.571 315.411 222.63Z" fill="#263238"/>
<path d="M385.016 245.697C385.016 245.697 385.227 264.113 374.213 269.422C363.199 274.73 357.333 270.316 349.821 272.097C350.108 271.658 355.451 263.978 363.941 261.868C372.685 259.682 382.332 253.369 385.016 245.697Z" fill="#54B726"/>
<path opacity="0.1" d="M385.016 245.697C385.016 245.697 385.227 264.113 374.213 269.422C363.199 274.73 357.333 270.316 349.821 272.097C353.775 270.211 358.002 268.96 362.346 268.392C369.292 267.548 382.552 263.033 385.016 245.697Z" fill="black"/>
<path d="M349.095 272.426C350.403 271.228 351.878 270.227 353.475 269.455C353.703 269.346 353.948 269.253 354.193 269.152C354.305 269.003 354.426 268.862 354.556 268.73C354.893 268.384 355.231 268.054 355.594 267.742C356.286 267.148 357.029 266.614 357.813 266.147C359.637 265.075 361.637 264.324 363.502 263.328C363.553 263.328 363.603 263.379 363.544 263.412C362.624 263.885 361.73 264.417 360.835 264.94C359.94 265.463 359.071 265.936 358.219 266.485C357.456 266.976 356.728 267.52 356.041 268.113C355.847 268.282 355.661 268.468 355.476 268.654C356.694 268.245 357.937 267.915 359.198 267.666C361.215 267.261 363.249 266.974 365.266 266.544C366.252 266.333 367.227 266.071 368.186 265.759C369.098 265.016 370.009 264.29 370.879 263.488C371.924 262.528 372.877 261.471 373.723 260.332C373.723 260.29 373.841 260.332 373.799 260.382C372.464 262.189 370.955 263.86 369.292 265.37C369.764 265.185 370.229 264.991 370.693 264.78C374.477 263.086 377.723 260.385 380.078 256.973C380.078 256.922 380.196 256.973 380.163 257.023C378.16 259.951 375.574 262.434 372.567 264.315C371.062 265.256 369.453 266.017 367.773 266.586C365.821 267.191 363.83 267.661 361.814 267.995C359.839 268.316 357.89 268.778 355.982 269.379C354.225 269.975 352.573 270.844 351.087 271.954C348.284 274.132 346.024 276.932 344.487 280.132C342.513 284.393 341.283 288.96 340.849 293.636C340.849 293.83 340.528 293.83 340.537 293.636C341.052 285.854 343.128 277.794 349.095 272.426Z" fill="#263238"/>
<path d="M361.873 266.417C362.448 265.558 363.225 264.854 364.135 264.366C365.18 263.821 366.097 263.062 366.828 262.138C366.828 262.087 366.946 262.138 366.904 262.189C366.243 263.03 365.44 263.75 364.532 264.316C363.533 264.848 362.651 265.577 361.941 266.459C361.907 266.502 361.84 266.459 361.873 266.417Z" fill="#263238"/>
<path d="M356.024 286.015L355.526 296.143L353.99 327.075H330.89L329.354 296.143L328.856 286.015H356.024Z" fill="#37474F"/>
<path d="M356.024 286.015L355.526 296.143H329.354L328.856 286.015H356.024Z" fill="#263238"/>
<path d="M357.645 281.786H327.235V291.45H357.645V281.786Z" fill="#37474F"/>
<path d="M35.6338 327.075L79.4711 326.873L123.317 326.797L211 326.653L298.683 326.797L342.529 326.873L386.366 327.075L342.529 327.286L298.683 327.362L211 327.497L123.317 327.354L79.4711 327.286L35.6338 327.075Z" fill="#263238"/>
<path d="M316.686 349.636V55.4763C316.686 49.4679 311.815 44.5972 305.806 44.5972L116.202 44.5972C110.193 44.5972 105.323 49.4679 105.323 55.4763L105.323 349.636C105.323 355.644 110.193 360.515 116.202 360.515H305.806C311.815 360.515 316.686 355.644 316.686 349.636Z" fill="#263238"/>
<path d="M307.764 66.7099H114.48V338.596H307.764V66.7099Z" fill="white"/>
<path d="M233.991 58.0168V56.8436C233.991 56.261 233.518 55.7886 232.936 55.7886H189.048C188.465 55.7886 187.993 56.261 187.993 56.8436V58.0168C187.993 58.5995 188.465 59.0718 189.048 59.0718H232.936C233.518 59.0718 233.991 58.5995 233.991 58.0168Z" fill="#37474F"/>
<path d="M211 355.231C214.286 355.231 216.95 352.567 216.95 349.281C216.95 345.995 214.286 343.331 211 343.331C207.714 343.331 205.05 345.995 205.05 349.281C205.05 352.567 207.714 355.231 211 355.231Z" fill="#37474F"/>
<path d="M277.988 104.048H144.265V105.931H277.988V104.048Z" fill="#EBEBEB"/>
<path d="M277.988 109.889H144.265V111.771H277.988V109.889Z" fill="#EBEBEB"/>
<path d="M277.988 287.745H144.265V289.627H277.988V287.745Z" fill="#EBEBEB"/>
<path d="M277.988 293.586H144.265V295.468H277.988V293.586Z" fill="#EBEBEB"/>
<path d="M176.776 313.85C180.188 313.85 182.954 311.084 182.954 307.672C182.954 304.26 180.188 301.494 176.776 301.494C173.364 301.494 170.598 304.26 170.598 307.672C170.598 311.084 173.364 313.85 176.776 313.85Z" fill="#FFC727"/>
<path d="M176.877 311.276L173.197 307.554L174.437 306.33L176.581 308.507L181.054 301.502L182.515 302.439L176.877 311.276Z" fill="white"/>
<path d="M192.246 307.621C192.25 307.178 192.33 306.738 192.483 306.322C192.639 305.897 192.877 305.507 193.183 305.174C193.509 304.805 193.911 304.513 194.361 304.316C194.812 304.119 195.3 304.023 195.791 304.034C196.383 304.024 196.967 304.176 197.479 304.473C197.938 304.739 198.31 305.132 198.551 305.604L197.496 306.372C197.412 306.182 197.295 306.007 197.15 305.857C197.022 305.728 196.878 305.617 196.719 305.528C196.564 305.449 196.4 305.39 196.23 305.351C196.066 305.318 195.899 305.301 195.732 305.3C195.415 305.292 195.101 305.365 194.82 305.511C194.566 305.644 194.344 305.832 194.171 306.06C193.997 306.291 193.865 306.551 193.782 306.828C193.591 307.403 193.591 308.025 193.782 308.6C193.876 308.884 194.022 309.147 194.213 309.377C194.399 309.597 194.625 309.781 194.88 309.917C195.141 310.051 195.43 310.12 195.724 310.12C195.894 310.117 196.064 310.094 196.23 310.052C196.404 310.016 196.572 309.953 196.728 309.866C196.888 309.774 197.036 309.66 197.167 309.529C197.305 309.38 197.416 309.209 197.496 309.022L198.635 309.681C198.522 309.95 198.356 310.194 198.146 310.398C197.934 310.605 197.692 310.779 197.428 310.913C196.891 311.201 196.291 311.352 195.681 311.352C195.193 311.356 194.71 311.246 194.272 311.031C193.855 310.823 193.483 310.536 193.175 310.187C192.868 309.839 192.625 309.439 192.457 309.006C192.297 308.562 192.225 308.092 192.246 307.621Z" fill="#FFC727"/>
<path d="M202.628 311.318C202.132 311.326 201.641 311.219 201.193 311.006C200.354 310.6 199.704 309.887 199.378 309.014C199.211 308.586 199.125 308.131 199.125 307.672C199.125 307.2 199.216 306.733 199.395 306.296C199.567 305.866 199.816 305.472 200.129 305.132C200.446 304.781 200.827 304.495 201.252 304.288C201.695 304.089 202.176 303.988 202.661 303.992C203.153 303.983 203.639 304.093 204.079 304.313C204.5 304.518 204.876 304.805 205.185 305.157C205.509 305.512 205.764 305.924 205.936 306.372C206.102 306.797 206.188 307.249 206.189 307.706C206.19 308.177 206.098 308.645 205.919 309.081C205.754 309.51 205.507 309.902 205.193 310.238C204.877 310.572 204.499 310.842 204.079 311.031C203.624 311.236 203.127 311.334 202.628 311.318ZM200.543 307.672C200.544 307.979 200.592 308.283 200.686 308.575C200.775 308.853 200.912 309.113 201.092 309.343C201.275 309.563 201.498 309.747 201.75 309.883C202.025 310.019 202.329 310.085 202.636 310.077C202.949 310.083 203.259 310.014 203.539 309.875C203.793 309.738 204.017 309.551 204.197 309.326C204.375 309.092 204.512 308.829 204.603 308.55C204.686 308.276 204.731 307.992 204.738 307.706C204.739 307.398 204.687 307.093 204.586 306.803C204.496 306.524 204.356 306.263 204.172 306.035C203.997 305.808 203.772 305.626 203.514 305.503C203.252 305.373 202.962 305.306 202.67 305.309C202.36 305.303 202.053 305.372 201.775 305.511C201.515 305.639 201.29 305.827 201.117 306.06C200.938 306.29 200.801 306.55 200.712 306.828C200.613 307.099 200.556 307.384 200.543 307.672Z" fill="#FFC727"/>
<path d="M208.611 306.659V311.267H207.219V304.076H208.299L212.046 308.794V304.085H213.447V311.267H212.308L208.611 306.659Z" fill="#FFC727"/>
<path d="M214.941 311.267V304.076H219.778V305.3H216.342V307.157H219.195V308.288H216.342V311.267H214.941Z" fill="#FFC727"/>
<path d="M220.756 311.267V304.076H222.157V311.267H220.756Z" fill="#FFC727"/>
<path d="M223.66 311.267V304.077H226.842C227.16 304.074 227.474 304.143 227.761 304.279C228.034 304.418 228.279 304.604 228.487 304.828C228.686 305.056 228.845 305.316 228.96 305.596C229.07 305.864 229.127 306.15 229.129 306.44C229.136 306.889 229.016 307.331 228.783 307.714C228.567 308.09 228.235 308.386 227.837 308.558L229.475 311.267H227.88L226.411 308.854H225.035V311.267H223.66ZM225.061 307.63H226.816C226.941 307.633 227.064 307.601 227.171 307.537C227.283 307.477 227.381 307.393 227.458 307.292C227.545 307.182 227.611 307.056 227.652 306.921C227.703 306.774 227.729 306.62 227.728 306.465C227.727 306.307 227.698 306.15 227.643 306.001C227.594 305.865 227.519 305.739 227.424 305.629C227.336 305.529 227.23 305.446 227.112 305.385C226.999 305.328 226.875 305.299 226.749 305.3H225.061V307.63Z" fill="#FFC727"/>
<path d="M236.252 311.267V306.507L234.404 310.052H233.644L231.787 306.507V311.267H230.412V304.076H231.914L234.041 308.17L236.185 304.076H237.678V311.267H236.252Z" fill="#FFC727"/>
<path d="M244.144 310.044V311.267H239.147V304.076H244.051V305.3H240.54V306.988H243.57V308.128H240.54V310.001L244.144 310.044Z" fill="#FFC727"/>
<path d="M245.241 311.268V304.077H247.849C248.378 304.063 248.904 304.161 249.393 304.364C249.817 304.534 250.197 304.797 250.507 305.132C250.806 305.461 251.033 305.849 251.174 306.271C251.483 307.205 251.483 308.215 251.174 309.149C251.02 309.572 250.776 309.956 250.46 310.277C250.144 310.597 249.763 310.846 249.343 311.006C248.874 311.187 248.376 311.276 247.874 311.268H245.241ZM249.984 307.664C249.99 307.34 249.942 307.017 249.841 306.71C249.758 306.433 249.617 306.177 249.427 305.959C249.245 305.747 249.017 305.58 248.76 305.469C248.47 305.354 248.161 305.297 247.849 305.3H246.633V310.044H247.849C248.165 310.047 248.478 309.984 248.769 309.858C249.025 309.744 249.253 309.574 249.435 309.36C249.619 309.136 249.757 308.878 249.841 308.6C249.941 308.299 249.99 307.982 249.984 307.664Z" fill="#FFC727"/>
<path d="M263.869 274.638H158.132V185.19L210.992 151.616L263.869 185.19V274.638Z" fill="#FFC727"/>
<path opacity="0.2" d="M263.869 274.638H158.132V185.19L210.992 151.616L263.869 185.19V274.638Z" fill="black"/>
<path d="M257.901 147.362H164.091V267.793H257.901V147.362Z" fill="#EBEBEB"/>
<path d="M205.286 219.415L183.807 197.673L191.023 190.541L203.573 203.244L229.636 162.377L238.194 167.829L205.286 219.415Z" fill="#FFC727"/>
<path d="M263.869 207.624V274.638H158.132V207.624C162.673 210.156 167.138 212.891 171.636 215.524C176.135 218.157 180.591 220.892 185.039 223.626C189.993 226.639 194.948 229.711 199.885 232.801L200.045 232.708C199.995 232.708 199.961 232.792 199.919 232.817C203.61 235.096 207.304 237.389 211 239.696C214.68 237.375 218.385 235.037 222.082 232.75C222.04 232.75 222.006 232.674 221.956 232.64C222.005 232.675 222.059 232.703 222.116 232.725C227.051 229.647 231.999 226.586 236.962 223.542C241.413 220.824 245.875 218.129 250.348 215.456C254.888 212.848 259.328 210.156 263.869 207.624Z" fill="#FFC727"/>
<g opacity="0.2">
<path opacity="0.2" d="M263.869 207.624C259.598 210.62 255.251 213.532 250.947 216.452C246.643 219.372 242.262 222.225 237.89 225.086C233.333 228.074 228.767 231.034 224.192 233.965L223.779 234.252L211.6 242.017L210.992 242.38L210.401 242.017L198.239 234.235L197.809 233.965C193.223 231.028 188.651 228.063 184.094 225.07C179.739 222.225 175.392 219.339 171.054 216.452C166.716 213.566 162.403 210.578 158.132 207.624C162.673 210.156 167.138 212.891 171.636 215.524C176.135 218.157 180.591 220.892 185.039 223.626C189.993 226.639 194.948 229.711 199.885 232.801C203.599 235.091 207.304 237.389 211 239.696C214.68 237.375 218.385 235.037 222.082 232.75C227.017 229.672 231.965 226.611 236.928 223.567C241.379 220.85 245.841 218.154 250.314 215.482C254.888 212.848 259.328 210.156 263.869 207.624Z" fill="black"/>
<path opacity="0.2" d="M200.028 232.665C199.978 232.665 199.944 232.75 199.902 232.775L198.214 234.193C195.563 236.43 192.846 238.573 190.086 240.658C186.71 243.19 183.275 245.722 179.814 248.136C176.354 250.55 172.843 252.913 169.264 255.2C165.686 257.487 162.09 259.724 158.36 261.775C161.567 258.964 164.901 256.34 168.268 253.791C171.636 251.242 175.096 248.727 178.54 246.304C181.983 243.882 185.528 241.511 189.098 239.223C191.943 237.4 194.838 235.603 197.783 233.923C198.467 233.526 199.15 233.146 199.851 232.758L200.028 232.665Z" fill="black"/>
<path opacity="0.2" d="M263.615 261.775C259.885 259.724 256.264 257.487 252.711 255.2C249.158 252.913 245.604 250.533 242.144 248.136C238.684 245.739 235.24 243.224 231.872 240.658C229.129 238.573 226.412 236.438 223.778 234.21L222.09 232.775C222.048 232.775 222.015 232.699 221.964 232.665C222.014 232.7 222.067 232.728 222.124 232.75C222.825 233.146 223.508 233.526 224.192 233.923C227.138 235.611 230.016 237.4 232.877 239.223C236.447 241.511 239.941 243.891 243.418 246.304C246.896 248.718 250.322 251.217 253.69 253.791C257.057 256.365 260.408 258.964 263.615 261.775Z" fill="black"/>
</g>
<path d="M165.762 141.623C165.199 136.984 165.199 132.294 165.762 127.655C166.325 132.294 166.325 136.984 165.762 141.623Z" fill="#263238"/>
<path d="M159.82 143.843C157.97 142.416 156.219 140.865 154.579 139.201C152.913 137.565 151.362 135.817 149.937 133.968C153.616 136.851 156.934 140.167 159.82 143.843Z" fill="#263238"/>
<path d="M157.195 149.607C154.878 149.908 152.543 150.049 150.207 150.029C147.873 150.056 145.541 149.917 143.227 149.616C145.541 149.311 147.873 149.17 150.207 149.194C152.543 149.172 154.878 149.31 157.195 149.607Z" fill="#263238"/>
<path d="M159.415 155.541C156.529 159.217 153.214 162.535 149.54 165.424C152.42 161.74 155.735 158.418 159.415 155.532V155.541Z" fill="#263238"/>
<path d="M255.606 141.623C255.312 139.306 255.174 136.971 255.192 134.635C255.175 132.301 255.319 129.969 255.622 127.655C256.185 132.294 256.185 136.984 255.622 141.623H255.606Z" fill="#263238"/>
<path d="M261.547 143.843C264.434 140.167 267.752 136.851 271.431 133.968C270.005 135.817 268.454 137.565 266.789 139.201C265.148 140.865 263.397 142.416 261.547 143.843Z" fill="#263238"/>
<path d="M264.172 149.608C266.489 149.31 268.824 149.172 271.16 149.194C273.494 149.17 275.826 149.311 278.14 149.616C275.826 149.918 273.494 150.056 271.16 150.03C268.824 150.049 266.489 149.908 264.172 149.608Z" fill="#263238"/>
<path d="M261.952 155.541C265.631 158.424 268.947 161.743 271.827 165.424C269.98 163.994 268.232 162.44 266.594 160.774C264.929 159.138 263.378 157.39 261.952 155.541Z" fill="#263238"/>
<path d="M142.88 385.809C141.057 386.4 89.1261 385.725 87.1765 384.442C86.4253 383.97 86.0793 376.399 85.9274 367.233V366.946C85.9274 365.064 85.8683 363.114 85.8599 361.148C85.8599 360.878 85.8599 360.608 85.8599 360.304L88.3919 333.363L123.131 333.709L119.696 360.397V361.452L119.485 366.971V367.545C119.485 367.545 139.251 376.694 141.26 378.332C143.269 379.969 144.695 385.236 142.88 385.809Z" fill="#F7A9A0"/>
<path d="M142.88 385.81C141.057 386.4 89.1261 385.725 87.1765 384.442C86.4253 383.97 86.0793 376.399 85.9274 367.233V366.946C85.9274 365.064 85.8683 363.114 85.8599 361.148C85.8599 360.878 85.8599 360.608 85.8599 360.304L119.687 360.397V361.452L119.476 366.971V367.545C119.476 367.545 139.243 376.694 141.252 378.332C143.26 379.969 144.695 385.236 142.88 385.81Z" fill="#EBEBEB"/>
<path d="M143.033 385.936C141.193 386.527 88.7888 386.029 86.8054 384.746C86.0458 384.265 85.6744 376.627 85.4888 367.385L119.249 367.613C119.249 367.613 139.226 376.779 141.26 378.416C143.294 380.053 144.864 385.337 143.033 385.936Z" fill="#FFC727"/>
<path d="M142.298 383.834C133.521 383.531 98.0643 383.151 89.3627 383.522C89.2951 383.522 89.2951 383.573 89.3627 383.581C98.0643 384.062 133.512 384.155 142.298 383.978C142.484 383.97 142.484 383.834 142.298 383.834Z" fill="#263238"/>
<path d="M137.926 376.5C136.95 376.467 135.978 376.636 135.071 376.996C134.163 377.357 133.339 377.9 132.651 378.593C131.409 379.838 130.69 381.511 130.643 383.269C130.643 383.32 130.744 383.32 130.752 383.269C131.066 381.532 131.935 379.944 133.229 378.743C134.522 377.542 136.171 376.794 137.926 376.61C137.935 376.613 137.945 376.615 137.955 376.614C137.964 376.613 137.973 376.609 137.981 376.604C137.989 376.598 137.996 376.591 138 376.583C138.005 376.574 138.007 376.565 138.007 376.555C138.007 376.545 138.005 376.536 138 376.527C137.996 376.519 137.989 376.511 137.981 376.506C137.973 376.501 137.964 376.497 137.955 376.496C137.945 376.495 137.935 376.496 137.926 376.5Z" fill="#263238"/>
<path d="M122.675 368.524C119.156 368.44 115.079 369.638 112.86 372.491C112.775 372.609 112.936 372.728 113.037 372.668C116.128 371.089 119.379 369.845 122.734 368.955C122.785 368.94 122.829 368.908 122.858 368.864C122.887 368.82 122.899 368.766 122.892 368.714C122.884 368.662 122.859 368.614 122.819 368.579C122.779 368.544 122.728 368.525 122.675 368.524Z" fill="#263238"/>
<path d="M125.376 369.605C121.865 369.52 117.78 370.727 115.56 373.58C115.476 373.69 115.636 373.808 115.738 373.757C118.828 372.173 122.079 370.925 125.435 370.035C125.486 370.021 125.53 369.988 125.559 369.944C125.588 369.9 125.599 369.847 125.592 369.794C125.585 369.742 125.559 369.694 125.52 369.659C125.48 369.624 125.429 369.605 125.376 369.605Z" fill="#263238"/>
<path d="M128.085 370.685C124.566 370.609 120.489 371.808 118.27 374.66C118.185 374.77 118.337 374.897 118.447 374.837C121.536 373.26 124.784 372.015 128.136 371.124C128.183 371.106 128.223 371.073 128.25 371.029C128.276 370.986 128.287 370.935 128.281 370.885C128.276 370.834 128.253 370.787 128.218 370.751C128.182 370.715 128.136 370.692 128.085 370.685Z" fill="#263238"/>
<path d="M130.82 371.774C127.309 371.689 123.224 372.896 121.004 375.749C120.92 375.859 121.08 375.977 121.181 375.926C124.253 374.346 127.484 373.098 130.82 372.204C130.87 372.194 130.914 372.167 130.947 372.128C130.979 372.089 130.997 372.04 130.997 371.989C130.997 371.938 130.979 371.889 130.947 371.85C130.914 371.81 130.87 371.784 130.82 371.774Z" fill="#263238"/>
<path d="M91.6834 375.2C87.7334 375.2 87.6912 381.303 91.6834 381.328C95.6755 381.353 95.6333 375.226 91.6834 375.2Z" fill="white"/>
<path d="M126.6 359.173C124.836 357.679 122.574 359.105 121.469 360.624C119.597 363.27 118.456 366.361 118.16 369.588C118.16 369.655 118.211 369.689 118.27 369.689C118.282 369.755 118.311 369.817 118.352 369.87C118.394 369.923 118.447 369.965 118.508 369.993C118.569 370.022 118.636 370.035 118.703 370.032C118.771 370.028 118.836 370.009 118.894 369.976C121.426 368.288 124.321 366.752 126.246 364.33C127.36 362.92 128.238 360.591 126.6 359.173ZM122.211 366.608C120.996 367.452 119.738 368.296 118.557 369.2C119.143 367.436 119.819 365.704 120.582 364.009C120.967 363.194 121.404 362.404 121.891 361.646C122.667 360.489 126.111 357.586 126.457 361.418C126.6 363.528 123.629 365.57 122.178 366.608H122.211Z" fill="#263238"/>
<path d="M109.399 370.803C112.463 371.301 115.628 370.465 118.641 370.027C118.706 370.01 118.766 369.978 118.817 369.934C118.868 369.89 118.908 369.834 118.934 369.772C118.96 369.71 118.972 369.643 118.968 369.576C118.964 369.509 118.944 369.444 118.911 369.385C118.922 369.376 118.93 369.365 118.936 369.353C118.942 369.341 118.945 369.327 118.945 369.313C118.945 369.3 118.942 369.286 118.936 369.274C118.93 369.261 118.922 369.25 118.911 369.242C116.534 367.057 113.623 365.538 110.471 364.836C108.623 364.456 105.998 364.929 105.703 367.224C105.407 369.394 107.618 370.516 109.399 370.803ZM107.298 368.828C104.951 365.79 109.475 365.587 110.826 365.916C111.688 366.139 112.534 366.421 113.358 366.76C115.096 367.452 116.734 368.372 118.363 369.225C116.869 369.351 115.4 369.605 113.906 369.782C112.159 369.967 108.597 370.457 107.298 368.828Z" fill="#263238"/>
<path opacity="0.1" d="M113.349 386.02C100.326 385.793 87.7591 385.362 86.8054 384.746C86.0458 384.265 85.6744 376.627 85.4888 367.385H90.2996C95.6168 371.74 106.867 380.796 113.349 386.02Z" fill="black"/>
<path d="M121.705 367.14H84.3071C84.3071 367.14 91.8356 279.795 91.5402 278.267C91.1688 276.309 88.9575 267.472 86.0204 255.918C85.1005 252.306 84.1045 248.432 83.0749 244.414C80.2812 233.543 77.1669 221.668 74.5336 211.329C70.5161 195.85 67.3765 183.823 67.3765 183.823H99.0687C99.0687 183.823 102.765 195.53 107.424 210.772C115.02 235.527 125.148 269.608 126.144 277.896C127.765 291.256 121.705 367.14 121.705 367.14Z" fill="#37474F"/>
<path d="M120.05 360.743C114.336 360.624 115.974 360.582 110.26 360.523C107.466 360.523 89.1008 360.337 86.4844 360.768C86.4687 360.768 86.4537 360.774 86.4426 360.785C86.4315 360.796 86.4253 360.811 86.4253 360.827C86.4253 360.843 86.4315 360.858 86.4426 360.869C86.4537 360.88 86.4687 360.886 86.4844 360.886C89.1008 361.316 107.466 361.156 110.26 361.131C115.974 361.08 114.336 361.029 120.05 360.911C120.073 360.911 120.094 360.902 120.11 360.887C120.126 360.871 120.135 360.849 120.135 360.827C120.135 360.805 120.126 360.783 120.11 360.767C120.094 360.751 120.073 360.743 120.05 360.743Z" fill="#263238"/>
<path d="M98.5791 272.908C97.3553 267.506 95.5154 262.206 93.9203 256.872C90.6793 246.097 87.4186 235.321 84.1383 224.546C82.5009 219.162 80.858 213.777 79.2093 208.392C78.3766 205.675 77.5326 202.96 76.6773 200.248C75.8333 197.589 74.8965 194.964 74.1453 192.28C73.8415 191.191 73.6727 191.791 74.0694 193.175C74.8543 195.96 75.6308 198.754 76.4495 201.539C78.0531 207.053 79.6735 212.562 81.3109 218.064C84.5519 229.02 87.821 239.966 91.1182 250.904C92.7668 256.396 94.4182 261.882 96.0725 267.362C96.9089 269.974 97.5826 272.635 98.0896 275.33C98.5353 278.145 98.6486 281.004 98.4272 283.846C98.0643 289.568 97.3975 295.282 96.8743 300.987C96.351 306.693 95.8108 312.432 95.2875 318.146C94.2354 329.534 93.1888 340.92 92.1479 352.303C92.0213 353.746 91.8947 355.189 91.7849 356.641C91.7849 357.122 92.477 357.08 92.5277 356.641C93.7599 345.39 94.7052 334.089 95.7602 322.822C96.8152 311.554 97.8702 300.38 98.9167 289.163C99.1784 286.344 99.4822 283.525 99.4822 280.723C99.4753 278.092 99.1724 275.471 98.5791 272.908Z" fill="#263238"/>
<path d="M95.4732 183.807C93.2704 200.83 89.0757 232.759 86.0204 255.901C78.8717 227.88 67.3765 183.807 67.3765 183.807H95.4732Z" fill="#263238"/>
<path d="M103.255 386.316C101.44 386.907 49.5092 386.426 47.5511 385.151C46.7999 384.678 46.4286 377.108 46.2429 367.942V367.655C46.2007 365.773 46.1669 363.823 46.1585 361.857C46.1585 361.587 46.1585 361.317 46.1585 361.013C46.0403 347.796 47.0025 334.081 47.0025 334.081L80.9482 334.3L79.9945 360.987V362.042L79.8088 367.571V368.136C79.8088 368.136 99.5162 377.268 101.525 378.872C103.534 380.475 105.078 385.708 103.255 386.316Z" fill="#F7A9A0"/>
<path d="M103.255 386.316C101.44 386.907 49.5089 386.426 47.5508 385.151C46.7996 384.678 46.4283 377.108 46.2426 367.942V367.655C46.2004 365.773 46.1666 363.823 46.1582 361.857C46.1582 361.587 46.1582 361.317 46.1582 361.013H79.9857V362.068L79.8 367.596V368.161C79.8 368.161 99.5159 377.268 101.525 378.872C103.533 380.475 105.078 385.708 103.255 386.316Z" fill="#EBEBEB"/>
<path d="M103.466 386.206C101.626 386.797 49.2224 386.299 47.239 385.016C46.4794 384.535 46.108 376.897 45.9224 367.655L79.6824 367.883C79.6824 367.883 99.6598 377.049 101.685 378.686C103.711 380.323 105.298 385.607 103.466 386.206Z" fill="#FFC727"/>
<path d="M102.731 384.105C93.9454 383.801 58.4974 383.421 49.7958 383.792C49.7282 383.792 49.7282 383.843 49.7958 383.843C58.489 384.332 93.9454 384.425 102.731 384.248C102.917 384.24 102.917 384.105 102.731 384.105Z" fill="#263238"/>
<path d="M98.3599 376.77C97.3839 376.737 96.4115 376.906 95.5038 377.266C94.5961 377.626 93.7726 378.17 93.0849 378.863C91.8393 380.106 91.1199 381.78 91.0762 383.539C91.0762 383.59 91.1774 383.59 91.1859 383.539C91.4997 381.802 92.3687 380.214 93.6624 379.013C94.956 377.812 96.6044 377.064 98.3599 376.88C98.3709 376.876 98.3803 376.868 98.3869 376.858C98.3935 376.848 98.397 376.837 98.397 376.825C98.397 376.813 98.3935 376.802 98.3869 376.792C98.3803 376.782 98.3709 376.775 98.3599 376.77Z" fill="#263238"/>
<path d="M83.1088 368.828C79.5893 368.752 75.5128 369.951 73.2931 372.803C73.2087 372.913 73.3606 373.04 73.4703 372.981C76.5617 371.402 79.8126 370.157 83.1679 369.267C83.2154 369.249 83.2554 369.214 83.2813 369.17C83.3072 369.126 83.3176 369.075 83.3108 369.024C83.304 368.974 83.2804 368.927 83.2437 368.891C83.2071 368.856 83.1596 368.834 83.1088 368.828Z" fill="#263238"/>
<path d="M85.8092 369.875C82.2981 369.79 78.2132 370.989 75.9934 373.85C75.909 373.96 76.0694 374.078 76.1707 374.027C79.2608 372.443 82.5119 371.196 85.8682 370.305C85.919 370.291 85.9629 370.258 85.9918 370.214C86.0206 370.17 86.0326 370.117 86.0254 370.064C86.0182 370.012 85.9924 369.964 85.9526 369.929C85.9129 369.894 85.862 369.875 85.8092 369.875Z" fill="#263238"/>
<path d="M88.5183 370.955C84.9988 370.871 80.9223 372.078 78.7026 374.93C78.6098 375.04 78.7701 375.158 78.8798 375.108C81.9667 373.525 85.2152 372.28 88.569 371.394C88.6164 371.376 88.6564 371.343 88.6827 371.299C88.7091 371.256 88.7202 371.205 88.7144 371.155C88.7086 371.104 88.6862 371.057 88.6507 371.021C88.6151 370.985 88.5686 370.962 88.5183 370.955Z" fill="#263238"/>
<path d="M91.2193 372.044C87.6998 371.959 83.6233 373.158 81.4036 376.019C81.3192 376.129 81.4796 376.247 81.5808 376.196C84.6703 374.611 87.9216 373.363 91.2784 372.474C91.3292 372.46 91.373 372.427 91.4019 372.383C91.4308 372.339 91.4427 372.286 91.4355 372.233C91.4283 372.181 91.4025 372.133 91.3628 372.098C91.3231 372.063 91.2721 372.044 91.2193 372.044Z" fill="#263238"/>
<path d="M52.117 375.47C48.167 375.47 48.1248 381.573 52.117 381.598C56.1091 381.623 56.0669 375.496 52.117 375.47Z" fill="white"/>
<path d="M86.9997 359.443C85.2273 357.949 82.9738 359.375 81.8597 360.895C80.0013 363.54 78.8719 366.629 78.585 369.849C78.5834 369.864 78.5853 369.878 78.5904 369.892C78.5955 369.906 78.6037 369.918 78.6143 369.928C78.625 369.938 78.6378 369.945 78.6518 369.949C78.6658 369.953 78.6805 369.953 78.6947 369.951C78.7062 370.017 78.7336 370.081 78.7746 370.135C78.8156 370.189 78.869 370.232 78.9302 370.261C78.9915 370.29 79.0588 370.304 79.1266 370.301C79.1943 370.298 79.2604 370.28 79.3193 370.246C81.8513 368.558 84.7462 367.022 86.6705 364.591C87.7762 363.173 88.6708 360.852 86.9997 359.443ZM82.6109 366.879C81.3955 367.723 80.138 368.567 78.9564 369.461C79.5566 367.697 80.2468 365.964 81.0242 364.271C81.4085 363.458 81.8455 362.671 82.3324 361.916C83.1089 360.76 86.5524 357.856 86.8984 361.68C87.0335 363.764 84.0626 365.84 82.6109 366.879Z" fill="#263238"/>
<path d="M69.8324 371.073C72.8877 371.571 76.0611 370.727 79.0658 370.297C79.1294 370.28 79.1884 370.25 79.2383 370.207C79.2883 370.164 79.3278 370.111 79.3539 370.051C79.3799 369.99 79.3919 369.925 79.3887 369.859C79.3856 369.794 79.3675 369.73 79.3358 369.672C79.348 369.664 79.358 369.652 79.3648 369.639C79.3717 369.626 79.3753 369.611 79.3753 369.596C79.3753 369.581 79.3717 369.567 79.3648 369.553C79.358 369.54 79.348 369.529 79.3358 369.52C76.9548 367.341 74.0452 365.822 70.8958 365.115C69.0475 364.743 66.4226 365.216 66.1272 367.512C65.8318 369.672 68.0516 370.778 69.8324 371.073ZM67.7308 369.048C65.3845 366.009 69.9084 365.815 71.2588 366.144C72.1211 366.367 72.9671 366.649 73.7908 366.988C75.4969 367.725 77.1646 368.547 78.7872 369.453C77.2934 369.579 75.8248 369.824 74.3394 370.01C72.5838 370.238 69.0306 370.727 67.7308 369.048Z" fill="#263238"/>
<path d="M98.0475 183.807C98.0475 183.807 97.3132 198.999 93.8275 210.983C93.549 211.979 93.2451 212.95 92.9244 213.887C89.7469 215.177 86.6931 216.753 83.8008 218.596C83.8008 218.596 83.4379 230.792 83.0749 244.406C82.6698 259.598 82.2309 276.579 82.3322 280.183C82.6529 293.687 80.6442 367.68 80.6442 367.68L43.2466 367.832C43.2466 367.832 49.9986 285.12 49.9986 280.217C49.9226 272.291 51.8047 237.249 53.2649 211.701C54.1089 195.952 54.8853 183.849 54.8853 183.849L98.0475 183.807Z" fill="#37474F"/>
<path d="M79.3358 361.021C73.6219 360.928 75.2592 360.878 69.5538 360.844C66.7517 360.844 48.3863 360.743 45.7783 361.19C45.7627 361.19 45.7476 361.196 45.7365 361.207C45.7255 361.218 45.7192 361.233 45.7192 361.249C45.7192 361.265 45.7255 361.28 45.7365 361.291C45.7476 361.302 45.7627 361.308 45.7783 361.308C48.3863 361.73 66.7602 361.485 69.5538 361.452C75.2677 361.367 73.6219 361.333 79.3358 361.19C79.3581 361.19 79.3796 361.181 79.3954 361.165C79.4113 361.149 79.4202 361.128 79.4202 361.105C79.4202 361.083 79.4113 361.062 79.3954 361.046C79.3796 361.03 79.3581 361.021 79.3358 361.021Z" fill="#263238"/>
<path d="M57.9993 189.225C57.3072 210.089 56.5814 230.952 55.6446 251.799C54.7077 272.646 53.4502 293.645 51.7031 314.508C50.724 326.172 49.7956 342.58 48.5381 354.176C48.5381 354.252 48.6478 354.286 48.6647 354.176C51.3824 333.481 52.8847 307.9 54.2435 287.07C55.6024 266.24 56.4886 245.393 57.1975 224.546C57.6026 212.73 57.9065 200.914 58.261 189.149C58.2356 189.056 58.0078 189.056 57.9993 189.225Z" fill="#263238"/>
<path d="M94.528 212.984C90.797 214.541 87.2079 216.419 83.8008 218.596C83.7775 218.615 83.7615 218.641 83.7555 218.67C83.7495 218.699 83.754 218.729 83.7681 218.755C83.7821 218.782 83.805 218.802 83.8326 218.813C83.8601 218.824 83.8907 218.825 83.919 218.816C87.5228 217.06 91.2027 215.372 94.7137 213.422C94.7583 213.39 94.7905 213.343 94.8052 213.29C94.8199 213.237 94.8162 213.18 94.7947 213.129C94.7732 213.079 94.7352 213.037 94.6868 213.01C94.6384 212.984 94.5824 212.974 94.528 212.984Z" fill="#263238"/>
<path d="M94.705 200.121C94.4518 201.446 94.1311 202.763 93.861 204.088C93.5909 205.413 93.3968 206.62 93.0676 207.818C92.7952 209.003 92.1923 210.086 91.329 210.941C90.8479 211.388 90.3077 211.785 89.7929 212.207L88.9489 212.874C88.9489 212.697 89.0249 212.519 89.0502 212.334C89.143 211.827 89.2274 211.329 89.3118 210.823C89.4975 209.7 89.6747 208.578 89.852 207.447C90.1896 205.236 90.4934 203.007 90.9576 200.83C90.9576 200.737 90.8395 200.703 90.8226 200.83C90.274 202.991 89.6663 205.126 89.1852 207.312C88.9489 208.384 88.1133 213.667 88.0796 214.064C88.0458 214.461 88.0036 214.84 87.9952 215.229C87.9398 215.621 87.9398 216.018 87.9952 216.41C87.9952 216.511 88.1302 216.495 88.1724 216.41C88.3367 216.045 88.4503 215.659 88.51 215.262C88.6113 214.891 88.6957 214.503 88.7632 214.123C88.7632 213.988 88.7632 213.844 88.8223 213.701C89.3456 213.389 89.8267 212.967 90.3162 212.612C90.8057 212.258 91.3796 211.861 91.8691 211.447C92.7581 210.658 93.3901 209.62 93.6837 208.468C94.0052 207.223 94.2142 205.952 94.3083 204.67C94.4771 203.168 94.5953 201.657 94.8063 200.163C94.8569 200.028 94.7219 200.028 94.705 200.121Z" fill="#263238"/>
<path d="M81.0243 149.447C83.9193 158.166 96.8831 185.883 102.327 187.824C107.999 189.833 129.9 192.339 134.762 188.516C137.142 186.634 137.969 166.572 134.762 167.078C131.555 167.585 112.244 168.285 109.948 167.467C107.653 166.648 92.3171 144.324 86.0883 138.889C75.3442 129.563 79.4798 144.746 81.0243 149.447Z" fill="#F7A9A0"/>
<path d="M129.917 166.741L129.604 191.715C129.604 191.715 107.146 191.774 101.162 188.626C95.1777 185.478 82.5177 156.621 79.3527 145.582C76.1877 134.542 81.2517 132.837 89.295 140.94C97.3383 149.042 109.433 166.024 110.868 166.37C112.302 166.716 129.917 166.741 129.917 166.741Z" fill="#FFC727"/>
<path d="M99.9466 153.279C95.3254 154.054 90.8507 155.534 86.6789 157.668L85.9193 158.065C85.7252 158.157 85.5395 158.259 85.3538 158.368C84.9824 158.562 84.6195 158.765 84.2566 158.984L84.0962 158.579L84.8643 158.132L85.4213 157.837C85.7674 157.643 86.1218 157.448 86.4763 157.271C88.6186 156.16 90.8521 155.234 93.1524 154.503C95.2814 153.813 97.4595 153.286 99.668 152.925L99.9466 153.279ZM104.96 159.584C104.562 159.793 104.153 159.981 103.736 160.149C102.658 160.604 101.522 160.905 100.36 161.044C99.7693 161.111 99.1785 161.213 98.5877 161.246L96.8069 161.297C94.4244 161.233 92.0735 160.735 89.8692 159.828C88.5441 159.314 87.2528 158.689 85.9615 158.065C85.7927 157.997 85.6323 157.913 85.4635 157.837C85.0584 157.651 84.6195 157.457 84.2397 157.28L83.843 157.111L83.4717 156.95L83.6152 157.305C83.6152 157.406 83.6996 157.508 83.7333 157.609H83.8093L84.898 158.098L85.3876 158.335C86.7886 159.001 88.1981 159.71 89.6666 160.284C91.9299 161.215 94.3436 161.727 96.79 161.795L98.613 161.753C99.2207 161.753 99.8284 161.609 100.428 161.542C101.646 161.401 102.839 161.092 103.972 160.622C104.442 160.437 104.902 160.225 105.348 159.989L104.96 159.584ZM96.3174 148.831C94.7381 149.564 93.2023 150.387 91.7176 151.296C88.9242 153.014 86.2764 154.959 83.8008 157.111L83.573 157.305C83.573 157.406 83.6574 157.508 83.6911 157.609V157.676C83.6911 157.676 83.6911 157.676 83.7418 157.676C83.8852 157.55 84.0203 157.423 84.1638 157.313C86.5957 155.242 89.1894 153.368 91.9201 151.709C93.4332 150.804 94.9909 149.976 96.5874 149.228L96.3174 148.831Z" fill="white"/>
<path d="M123.376 179.072C123.376 177.088 123.519 169.18 123.697 167.256H123.756C123.95 169.163 124.051 176.97 124.043 178.954C124.108 182.897 123.958 186.842 123.595 190.77C123.59 190.783 123.582 190.794 123.571 190.802C123.559 190.809 123.546 190.814 123.532 190.814C123.518 190.814 123.505 190.809 123.493 190.802C123.482 190.794 123.473 190.783 123.469 190.77C123.173 186.879 123.334 182.971 123.376 179.072Z" fill="#263238"/>
<path opacity="0.1" d="M79.3358 145.573C82.5008 156.621 95.1608 185.469 101.145 188.617C104.014 190.128 110.665 190.905 116.818 191.293L81.5724 135.884C78.5593 135.563 77.4199 138.83 79.3358 145.573Z" fill="black"/>
<path d="M50.9604 206.333C51.0955 206.468 105.888 202.721 106.344 202.113C106.985 201.269 89.6409 145.565 85.2943 137.42C83.446 133.935 74.584 133.428 71.0814 136.728C62.3122 144.974 56.2101 171.636 54.9272 179.629C52.8003 192.812 50.4709 205.852 50.9604 206.333Z" fill="#FFC727"/>
<path d="M103.415 191.031L101.879 190.128C99.8089 188.922 97.6762 187.826 95.4902 186.845L94.2918 186.322L93.7094 186.085C92.0953 185.419 90.4405 184.855 88.7551 184.397C86.4518 183.755 84.0916 183.336 81.7077 183.148C76.9239 182.941 72.137 183.482 67.5201 184.752L66.6761 184.988C66.4651 185.039 66.2625 185.098 66.06 185.165C62.843 186.149 59.7171 187.408 56.7169 188.93C55.8729 189.326 55.0289 189.774 54.2524 190.187L53.9992 190.322L53.0708 190.82L53.1468 190.39L54.1005 189.9C55.0458 189.385 55.9995 188.887 56.9616 188.423C57.755 188.018 58.5652 187.638 59.3755 187.275C61.4135 186.341 63.5046 185.526 65.638 184.836L66.2541 184.659C66.6339 184.532 67.0137 184.423 67.4019 184.321C69.727 183.667 72.1049 183.218 74.5084 182.979C76.9074 182.719 79.3238 182.657 81.733 182.794C85.9705 183.156 90.1224 184.196 94.0301 185.874L94.604 186.128L95.6084 186.575C97.7977 187.584 99.9305 188.711 101.997 189.951L103.314 190.727L103.415 191.031ZM100.58 181.747C99.1785 182.591 97.8112 183.435 96.4524 184.33C95.6084 184.853 94.8404 185.385 94.0301 185.9L93.7094 186.111C92.6038 186.82 91.4812 187.503 90.3334 188.145C88.2785 189.346 86.0402 190.201 83.708 190.677C82.5432 190.9 81.3529 190.96 80.1716 190.854C79.5808 190.795 78.9816 190.778 78.3992 190.694L76.6437 190.381C74.3256 189.826 72.1269 188.857 70.1534 187.52C68.9633 186.744 67.8324 185.832 66.6845 184.988L66.2456 184.659C65.8912 184.389 65.5282 184.119 65.1653 183.866L64.8193 183.612L64.3129 183.266C62.3024 181.835 59.9174 181.022 57.4512 180.928C56.4781 180.947 55.5168 181.144 54.6153 181.511L54.5394 181.967C55.4602 181.583 56.4453 181.377 57.4427 181.359C59.8193 181.473 62.1106 182.28 64.0344 183.68L64.3298 183.882L64.6758 184.127C64.9965 184.355 65.3172 184.591 65.6295 184.836L66.0684 185.165C67.3091 186.111 68.5413 187.09 69.8664 187.951C71.8873 189.324 74.1407 190.319 76.5171 190.888L78.3233 191.217C78.9225 191.301 79.5302 191.327 80.1379 191.386C81.3613 191.491 82.5933 191.432 83.8008 191.208C86.1809 190.716 88.4626 189.832 90.5528 188.592C91.8104 187.883 93.0342 187.115 94.2411 186.322L94.5534 186.128L96.6803 184.735C97.9969 183.891 99.3304 183.047 100.681 182.203L100.58 181.747ZM99.6512 178.759C98.1852 178.286 96.6948 177.891 95.1864 177.578C92.8119 177.098 90.3923 176.877 87.9702 176.919C85.5475 176.965 83.1331 177.219 80.754 177.679C78.3764 178.128 76.0371 178.76 73.7572 179.57C70.6739 180.678 67.6872 182.038 64.8277 183.638C64.6589 183.722 64.4986 183.815 64.3382 183.908C63.1397 184.575 61.9666 185.267 60.8018 185.984C59.5105 186.777 58.2276 187.596 56.9616 188.423C55.9742 189.056 54.9951 189.706 54.0161 190.348L53.0708 190.964C53.0708 191.099 53.0286 191.225 53.0117 191.352C54.2608 190.559 55.4931 189.748 56.7338 188.955C57.5778 188.389 58.4893 187.824 59.3755 187.267C59.9072 186.929 60.4389 186.6 60.9791 186.279C62.1944 185.545 63.4351 184.828 64.6842 184.144L65.1738 183.882C67.9753 182.349 70.8967 181.044 73.9092 179.983C78.4308 178.373 83.1733 177.468 87.9702 177.299C90.368 177.244 92.7648 177.448 95.1189 177.907C96.6908 178.224 98.2435 178.629 99.7693 179.122C99.7271 178.979 99.6849 178.852 99.6512 178.734V178.759Z" fill="white"/>
<path d="M63.722 143.058C49.1799 159.094 32.781 186.195 39.7946 192.01C46.209 197.294 69.6047 192.264 84.3156 186.516C87.1177 185.419 75.7575 160.656 72.9048 162.124C69.9012 163.723 66.8004 165.133 63.6208 166.344C62.7768 166.564 67.2331 161.162 72.162 148.181C77.1416 134.922 72.0354 133.884 63.722 143.058Z" fill="#F7A9A0"/>
<path d="M108.648 160.25C108.648 163.128 101.567 162.563 101.567 162.563C102.599 163.235 103.363 164.247 103.727 165.424C104.259 167.543 101.195 169.315 101.195 169.315C102.115 170.238 102.741 171.413 102.993 172.691C103.297 174.767 100.461 177.004 100.461 177.004C100.836 178.33 100.722 179.747 100.14 180.996C98.4523 184.279 92.7806 184.372 89.278 185.081C85.3534 185.988 81.5089 187.213 77.7828 188.744L71.2671 162.875C71.2671 162.875 86.4591 153.853 90.6791 154.055C94.2408 154.3 108.631 155.845 108.648 160.25Z" fill="#F7A9A0"/>
<path d="M101.508 162.479C97.7435 161.381 93.7261 161.196 89.8521 161.052C89.7677 161.052 89.7593 161.179 89.8521 161.187C93.7177 161.28 97.6423 162.411 101.482 162.664C101.507 162.668 101.532 162.661 101.552 162.646C101.572 162.631 101.585 162.609 101.588 162.584C101.591 162.559 101.585 162.535 101.57 162.515C101.555 162.495 101.532 162.482 101.508 162.479Z" fill="#263238"/>
<path d="M101.069 169.053C100.19 168.888 99.2936 168.84 98.4021 168.91C97.4569 168.91 96.5116 168.952 95.5663 168.994C93.6701 169.079 91.7796 169.214 89.8946 169.399C89.8102 169.399 89.8018 169.534 89.8946 169.534C91.7852 169.45 93.6757 169.391 95.5579 169.382H98.3937C99.2859 169.456 100.183 169.427 101.069 169.298C101.092 169.287 101.112 169.27 101.126 169.248C101.14 169.227 101.147 169.201 101.147 169.176C101.147 169.15 101.14 169.125 101.126 169.103C101.112 169.081 101.092 169.064 101.069 169.053Z" fill="#263238"/>
<path d="M100.326 177.08C99.5303 176.94 98.7164 176.94 97.9206 177.08L95.3718 177.24C93.6838 177.333 91.9198 177.434 90.1896 177.468C90.1717 177.468 90.1545 177.475 90.1418 177.488C90.1292 177.501 90.1221 177.518 90.1221 177.536C90.1221 177.554 90.1292 177.571 90.1418 177.583C90.1545 177.596 90.1717 177.603 90.1896 177.603C91.9451 177.603 93.7006 177.603 95.4562 177.527L98.0388 177.451C98.8257 177.499 99.6148 177.405 100.368 177.173C100.381 177.167 100.39 177.157 100.395 177.144C100.4 177.132 100.399 177.117 100.394 177.105C100.388 177.093 100.378 177.083 100.365 177.079C100.352 177.074 100.338 177.074 100.326 177.08Z" fill="#263238"/>
<path d="M70.533 162.664L76.1371 190.516C76.1371 190.516 41.3053 199.606 37.6929 190.795C34.0806 181.983 54.573 149.261 66.389 139.927C78.205 130.592 73.7655 145.295 73.4026 146.476C71.8074 151.701 64.3802 165.323 64.3802 165.323L70.533 162.664Z" fill="#FFC727"/>
<path d="M76.1375 190.483C76.1375 190.483 41.3056 199.572 37.6933 190.761C35.7521 186.018 40.7823 174.362 47.6778 163.145L47.7875 162.968L47.931 162.74C47.9732 162.664 48.0239 162.588 48.0745 162.512C50.5648 158.498 53.2578 154.614 56.1431 150.874L56.4385 150.494C59.3449 146.602 62.6768 143.046 66.3724 139.893C78.1884 130.559 73.749 145.261 73.3861 146.443C73.2763 146.814 73.1329 147.228 72.9641 147.675C72.8965 147.844 72.829 148.029 72.7531 148.215C71.7825 150.696 70.2211 154.039 68.6428 157.111L68.4571 157.482C68.4571 157.482 68.4571 157.567 68.398 157.6L68.2967 157.794C66.2965 161.736 64.4819 165.078 64.3721 165.281L70.5333 162.664L76.1375 190.483Z" fill="#FFC727"/>
<path d="M68.6428 157.111L68.4571 157.482C68.4571 157.482 68.4571 157.566 68.398 157.6L67.976 157.87L64.5409 160.107C62.5249 161.435 60.4181 162.619 58.2362 163.652C57.1317 164.161 55.9739 164.546 54.7843 164.8C53.58 165.08 52.3234 165.042 51.1382 164.69C50.8428 164.605 50.539 164.538 50.2942 164.445L49.4502 164.082C48.8892 163.843 48.3475 163.561 47.8297 163.238L47.7031 163.162L47.8128 162.985L47.9563 162.757C47.9943 162.793 48.0369 162.825 48.0829 162.85L48.2011 162.917C48.656 163.217 49.1361 163.477 49.6359 163.694L50.4799 164.048L51.3239 164.293C52.4467 164.635 53.6394 164.679 54.7843 164.42C55.9463 164.178 57.0784 163.81 58.1603 163.323C60.3274 162.314 62.4226 161.158 64.4312 159.862L67.1742 158.107L67.8916 157.642L68.6428 157.111ZM67.7988 157.626C63.469 158.681 59.2237 160.023 54.9024 161.078C52.6405 161.643 50.3448 162.141 48.0407 162.512C47.9901 162.588 47.9394 162.664 47.8972 162.74L47.7538 162.968L48.142 162.901C50.4461 162.512 52.7334 161.997 54.9953 161.424C59.0549 160.402 63.0386 159.136 67.0814 158.09L67.9254 157.87C68.0266 157.87 68.1364 157.811 68.2461 157.794L68.3474 157.6C68.3474 157.6 68.3474 157.524 68.4064 157.482L67.7988 157.626ZM68.0773 150.612C67.0268 151.178 65.9281 151.65 64.7941 152.021C63.6823 152.4 62.505 152.55 61.3337 152.46C59.5566 152.21 57.8659 151.536 56.4048 150.494L56.1094 150.874C57.6462 151.953 59.4212 152.645 61.2831 152.891C62.5164 152.98 63.7549 152.813 64.9207 152.401C66.0894 152.022 67.2197 151.533 68.2967 150.941C69.8304 150.109 71.3206 149.199 72.7615 148.215C72.8374 148.029 72.905 147.844 72.9725 147.675C71.4041 148.738 69.7815 149.718 68.111 150.612H68.0773Z" fill="white"/>
<path d="M69.9341 162.69C65.9335 164.091 55.4511 169.323 53.1469 171.467C53.1371 171.48 53.1316 171.496 53.1314 171.512C53.1311 171.528 53.1361 171.544 53.1455 171.557C53.1549 171.571 53.1684 171.58 53.1838 171.585C53.1993 171.591 53.2159 171.59 53.2313 171.585C55.4933 169.99 68.4233 163.652 70.4743 162.875C70.4743 162.875 70.5755 163.12 70.6177 163.188C70.6599 163.255 70.7359 163.23 70.7359 163.137C70.7001 162.909 70.6493 162.683 70.584 162.462L69.9341 162.69Z" fill="#263238"/>
<path d="M66.9546 178.253C66.5748 176.312 65.1231 168.53 64.9121 166.572C64.9121 166.572 64.9121 166.53 64.9627 166.572C65.5367 168.395 67.1909 176.033 67.5791 177.975C68.4378 181.835 69.0831 185.741 69.5119 189.672C69.5119 189.74 69.4106 189.782 69.3853 189.672C68.3641 185.942 67.6973 182.076 66.9546 178.253Z" fill="#263238"/>
<path d="M64.093 165.424C65.1817 163.053 66.5153 160.799 67.7137 158.487C68.9122 156.174 70.1529 153.878 71.267 151.54H71.3176C70.6424 153.136 69.9672 154.731 69.2414 156.301C69.4608 156.056 69.6634 155.794 69.8659 155.533C70.2373 155.06 70.5749 154.562 70.9125 154.064C70.9125 154.064 70.9716 154.064 70.9631 154.064C70.7004 154.622 70.3747 155.149 69.9925 155.634C69.71 155.998 69.3996 156.339 69.0641 156.655C68.7687 157.296 68.4565 157.938 68.1357 158.571C67.0965 160.927 65.8805 163.201 64.4981 165.374C64.4475 165.534 64.0508 165.534 64.093 165.424Z" fill="#263238"/>
<path d="M52.5307 194.407C56.6409 194.357 72.1621 191.31 76.0023 190.516C75.9517 190.111 76.0023 189.968 75.901 189.394C75.901 189.318 76.0107 189.284 76.0276 189.394C76.1289 189.942 76.5003 191.031 76.3483 191.082C74.5 191.808 56.565 194.939 52.5307 194.601C52.5179 194.601 52.5053 194.599 52.4935 194.594C52.4817 194.589 52.471 194.582 52.462 194.573C52.453 194.564 52.4459 194.553 52.441 194.541C52.4361 194.53 52.4336 194.517 52.4336 194.504C52.4336 194.491 52.4361 194.479 52.441 194.467C52.4459 194.455 52.453 194.445 52.462 194.436C52.471 194.427 52.4817 194.419 52.4935 194.415C52.5053 194.41 52.5179 194.407 52.5307 194.407Z" fill="#263238"/>
<path d="M94.3252 191.597L123.224 195.488L134.187 155.322L105.289 151.439L94.3252 191.597Z" fill="#263238"/>
<path d="M95.7515 191.782L124.642 195.673L135.605 155.516L106.715 151.625L95.7515 191.782Z" fill="#37474F"/>
<path d="M119.713 172.37C119.532 173.121 119.083 173.779 118.45 174.221C117.817 174.662 117.044 174.857 116.278 174.767C115.916 174.729 115.567 174.613 115.254 174.428C114.941 174.243 114.672 173.992 114.464 173.693C114.257 173.395 114.116 173.055 114.052 172.697C113.988 172.339 114.001 171.971 114.092 171.619C114.272 170.868 114.721 170.209 115.354 169.766C115.987 169.323 116.759 169.126 117.527 169.214C117.89 169.252 118.24 169.368 118.553 169.554C118.867 169.739 119.137 169.991 119.344 170.29C119.552 170.59 119.692 170.931 119.756 171.29C119.819 171.649 119.805 172.018 119.713 172.37Z" fill="white"/>
<path d="M135.319 163.795C136.526 167.171 139.969 171.569 140.02 174.236C140.054 174.892 139.876 175.543 139.513 176.091C139.15 176.64 138.621 177.057 138.003 177.282C138.003 177.282 140.535 178.861 140.138 181.283C139.961 182.532 137.8 183.342 137.8 183.342C138.346 183.729 138.775 184.259 139.038 184.875C139.302 185.49 139.39 186.166 139.294 186.828C138.939 188.516 136.829 189.082 136.829 189.082C136.829 189.082 138.095 191.251 137.175 192.871C135.302 196.154 120.439 194.643 118.7 188.93C117.856 186.271 121.494 186.836 121.494 186.836C121.494 186.836 116.497 184.769 116.734 181.697C116.97 178.624 121.612 179.637 121.612 179.637C121.612 179.637 116.793 177.595 117.392 174.43C117.991 171.265 122.456 172.953 122.456 172.953C122.456 172.953 119.375 170.421 120.363 168.057C121.992 164.217 127.748 169.838 131.09 169.391L133.445 164.184L135.319 163.795Z" fill="#F7A9A0"/>
<path d="M137.825 168.8C136.981 165.5 141.302 161.972 140.931 158.672C140.433 154.241 135.124 157.997 133.402 164.175L132.904 169.239L137.825 168.8Z" fill="#F7A9A0"/>
<path d="M136.517 189.217C136.528 189.217 136.539 189.221 136.547 189.229C136.555 189.237 136.559 189.248 136.559 189.259C136.559 189.27 136.555 189.281 136.547 189.289C136.539 189.297 136.528 189.301 136.517 189.301C131.319 190.032 126.022 189.17 121.325 186.828C121.173 186.752 121.24 186.474 121.418 186.533C126.294 188.155 131.38 189.059 136.517 189.217Z" fill="#263238"/>
<path d="M137.867 183.376C137.926 183.376 137.926 183.477 137.867 183.486C132.119 184.249 126.288 182.931 121.426 179.772C121.257 179.654 121.224 179.384 121.426 179.502C124.827 181.46 133.04 183.3 137.867 183.376Z" fill="#263238"/>
<path d="M122.135 172.598C126.921 175.645 132.196 176.818 137.792 177.316C137.859 177.316 137.851 177.426 137.792 177.434C134.99 177.958 131.453 177.291 128.752 176.54C126.224 175.892 123.91 174.591 122.043 172.767C121.958 172.691 122.034 172.531 122.135 172.598Z" fill="#263238"/>
<path d="M86.3158 139.564C86.4171 142.096 86.493 147.844 82.5937 147.413C81.0265 147.102 79.582 146.346 78.4328 145.236C77.2028 144.214 76.0903 143.06 75.1159 141.792C73.9982 140.415 72.9934 138.95 72.1113 137.412C72.1113 137.353 71.9762 137.412 72.0184 137.479C72.9131 139.024 73.6558 140.619 74.7023 142.079C75.6906 143.494 76.866 144.769 78.1965 145.869C79.4461 147.029 81.0225 147.778 82.7119 148.012C83.4364 148.063 84.1563 147.862 84.7488 147.442C85.3413 147.021 85.7698 146.409 85.9613 145.708C86.5376 143.712 86.6588 141.613 86.3158 139.564Z" fill="#263238"/>
<path d="M82.4754 144.873C79.6564 145.118 75.0482 139.809 73.6978 136.205C74.0519 134.327 74.4998 132.468 75.0397 130.634C75.4702 128.854 75.8837 126.853 76.1876 125.005L87.379 129.52C86.3799 131.74 85.6544 134.072 85.2184 136.467C85.1935 136.722 85.1935 136.979 85.2184 137.235C85.2184 137.235 85.2184 137.319 85.2184 137.361C85.2437 138.838 85.193 144.636 82.4754 144.873Z" fill="#F7A9A0"/>
<path d="M85.1847 137.235C85.189 137.277 85.189 137.319 85.1847 137.361C84.7832 137.359 84.3825 137.325 83.9862 137.26C77.2848 136.12 76.905 127.672 76.9388 125.317L79.7409 126.44L87.3369 129.52C86.3381 131.739 85.6153 134.072 85.1847 136.467C85.1601 136.722 85.1601 136.979 85.1847 137.235Z" fill="#263238"/>
<path d="M74.9052 112.345C73.7404 116.565 76.2387 128.491 79.2602 131.09C83.649 134.871 90.6711 135.066 93.8445 129.824C96.9167 124.76 93.3888 109.222 90.0212 106.876C85.0669 103.407 76.6185 106.15 74.9052 112.345Z" fill="#F7A9A0"/>
<path d="M86.6957 119.89C86.6957 119.89 86.645 119.941 86.6957 119.975C86.8813 120.777 86.9657 121.73 86.2905 122.144C86.2905 122.144 86.2905 122.195 86.2905 122.186C87.1261 121.882 87.0079 120.625 86.6957 119.89Z" fill="#263238"/>
<path d="M85.8094 119.198C84.4927 119.367 84.9654 121.983 86.1385 121.832C87.3117 121.68 86.9319 119.063 85.8094 119.198Z" fill="#263238"/>
<path d="M91.2787 119.004C91.2787 119.004 91.3546 119.004 91.3546 119.072C91.4644 119.916 91.726 120.802 92.5025 120.954V120.996C91.5825 120.996 91.2534 119.781 91.2787 119.004Z" fill="#263238"/>
<path d="M91.8692 118.025C93.1605 117.713 93.6922 120.312 92.4937 120.557C91.2953 120.802 90.7889 118.287 91.8692 118.025Z" fill="#263238"/>
<path d="M84.577 118.16C84.9064 118.008 85.225 117.833 85.5307 117.637C85.8848 117.5 86.1821 117.247 86.3747 116.92C86.4182 116.803 86.4219 116.675 86.3852 116.556C86.3486 116.437 86.2737 116.333 86.1722 116.261C85.951 116.148 85.7038 116.097 85.4559 116.111C85.2081 116.126 84.9688 116.207 84.7627 116.346C84.3049 116.562 83.944 116.941 83.7499 117.409C83.7065 117.522 83.6983 117.645 83.7262 117.763C83.7541 117.88 83.8169 117.987 83.9063 118.068C83.9958 118.149 84.1077 118.201 84.2274 118.218C84.3471 118.234 84.4689 118.214 84.577 118.16Z" fill="#263238"/>
<path d="M92.7131 117.223C92.3418 117.223 91.9957 117.156 91.6244 117.122C91.2371 117.14 90.8546 117.03 90.5356 116.81C90.4508 116.719 90.3976 116.604 90.3839 116.481C90.3702 116.357 90.3968 116.233 90.4597 116.126C90.6178 115.935 90.8239 115.79 91.0568 115.706C91.2898 115.621 91.541 115.6 91.7847 115.645C92.2937 115.659 92.7789 115.864 93.1436 116.219C93.2216 116.304 93.2735 116.41 93.2928 116.523C93.3122 116.637 93.2984 116.754 93.2529 116.86C93.2075 116.966 93.1323 117.057 93.0366 117.121C92.9408 117.186 92.8285 117.221 92.7131 117.223Z" fill="#263238"/>
<path d="M86.8137 127.486C87.0202 127.694 87.291 127.824 87.5817 127.858C87.8846 127.799 88.1721 127.679 88.4257 127.503C88.4257 127.503 88.4848 127.503 88.4257 127.545C88.3341 127.723 88.1965 127.873 88.0274 127.98C87.8582 128.087 87.6635 128.147 87.4636 128.153C87.292 128.135 87.1295 128.067 86.996 127.957C86.8626 127.848 86.764 127.702 86.7124 127.537C86.7293 127.495 86.7884 127.444 86.8137 127.486Z" fill="#263238"/>
<path d="M87.2696 124.727C87.5297 125.014 87.8459 125.244 88.1987 125.404C88.5515 125.563 88.9333 125.649 89.3205 125.655C89.6591 125.662 89.9971 125.622 90.3249 125.537L90.5106 125.486L90.6794 125.427C90.7223 125.412 90.7589 125.383 90.7834 125.345C90.8079 125.307 90.8188 125.261 90.8144 125.216C90.8193 125.188 90.8193 125.16 90.8144 125.132V125.064C90.73 124.431 90.5106 123.494 90.5106 123.494C90.7553 123.57 92.0129 123.908 91.9369 123.579C91.4053 120.774 90.588 118.031 89.4978 115.392C89.4926 115.377 89.4829 115.364 89.47 115.355C89.4572 115.346 89.4418 115.341 89.426 115.341C89.4103 115.341 89.3949 115.346 89.382 115.355C89.3692 115.364 89.3595 115.377 89.3543 115.392C89.8269 117.991 90.7638 120.456 91.287 123.081C90.8394 122.956 90.3761 122.896 89.9113 122.904C89.8269 122.904 90.3671 124.71 90.3755 124.997C89.872 125.131 89.3465 125.163 88.8304 125.091C88.3142 125.018 87.8179 124.843 87.3709 124.575C87.2696 124.6 87.2105 124.667 87.2696 124.727Z" fill="#263238"/>
<path d="M89.9536 125.385C89.6842 125.876 89.2952 126.291 88.8226 126.592C88.5674 126.74 88.2731 126.808 87.9786 126.786C87.3118 126.727 87.2021 126.144 87.2359 125.621C87.2536 125.334 87.3075 125.051 87.3962 124.777C88.1636 125.243 89.0584 125.456 89.9536 125.385Z" fill="#263238"/>
<path d="M88.8226 126.6C88.5674 126.749 88.2731 126.816 87.9786 126.794C87.3118 126.735 87.2021 126.153 87.2359 125.63C87.5705 125.593 87.9079 125.668 88.1951 125.844C88.4823 126.019 88.7031 126.285 88.8226 126.6Z" fill="#FF9ABB"/>
<path d="M92.3165 110.362C91.6413 109.425 90.8986 108.488 90.2234 108.412C89.5482 108.336 89.4722 109.957 88.0712 110.362C86.1722 110.902 84.864 109.34 82.1632 109.729C78.2386 110.294 77.2342 113.89 78.323 119.384C79.2936 124.296 76.4409 125.393 76.4409 125.393C76.4409 125.393 72.3221 114.987 74.5925 110.758C76.8628 106.53 83.5051 103.449 88.9405 105.855C90.8732 106.724 92.3165 110.362 92.3165 110.362Z" fill="#263238"/>
<path d="M78.4244 122.667C78.4244 122.667 75.5295 118.911 73.8162 119.958C72.1028 121.004 74.3901 126.541 76.5001 127.216C76.7632 127.322 77.0451 127.374 77.3287 127.367C77.6122 127.361 77.8916 127.297 78.1497 127.179C78.4078 127.062 78.6393 126.893 78.8302 126.683C79.021 126.473 79.1673 126.227 79.26 125.959L78.4244 122.667Z" fill="#F7A9A0"/>
<path d="M74.5083 121.536C74.5083 121.536 74.5083 121.536 74.5083 121.595C75.1873 121.897 75.7956 122.337 76.2942 122.888C76.7927 123.439 77.1705 124.088 77.4032 124.794C77.3119 124.653 77.1911 124.532 77.0489 124.442C76.9068 124.352 76.7468 124.294 76.5799 124.271C76.4131 124.249 76.2433 124.263 76.0824 124.312C75.9214 124.362 75.7731 124.445 75.6477 124.558C75.6477 124.558 75.6477 124.642 75.6899 124.634C75.9415 124.539 76.2161 124.525 76.4761 124.593C76.7361 124.661 76.9686 124.808 77.1416 125.013C77.421 125.364 77.6669 125.74 77.8759 126.136C77.9434 126.263 78.1797 126.187 78.1206 126.035C78.0615 124.144 76.5086 121.621 74.5083 121.536Z" fill="#263238"/>
<path d="M84.9994 104.369C83.3529 103.9 81.6474 103.669 79.9354 103.686C78.0026 103.745 72.1199 105.137 70.8792 106.555C69.6386 107.973 70.145 113.645 70.2378 114.472C70.3306 115.299 71.47 120.203 73.4619 121.123C75.4537 122.043 74.3059 113.577 76.6944 110.336C79.0829 107.095 84.9994 104.369 84.9994 104.369Z" fill="#FFC727"/>
<path opacity="0.1" d="M84.9992 104.378C84.9992 104.378 79.0912 107.095 76.652 110.336C74.2129 113.577 75.4029 122.034 73.4279 121.123C72.9676 120.869 72.562 120.526 72.2346 120.115C71.9072 119.704 71.6645 119.231 71.5205 118.726C71.5205 116.194 71.9003 112.227 73.5377 109.256C75.0737 106.479 78.1881 104.698 81.6654 103.745C82.7929 103.859 83.9084 104.071 84.9992 104.378Z" fill="black"/>
<path d="M74.6937 126.052C74.4996 123.781 75.8415 117.401 77.6983 113.577C79.5551 109.754 86.2818 106.64 87.2693 106.538C89.6832 106.302 90.3921 107.382 90.7382 107.087C91.0842 106.791 88.2652 104.47 87.5225 104.175C86.4146 103.818 85.2408 103.714 84.0874 103.871C83.0493 104.057 76.7446 105.703 74.8456 108.8C72.9466 111.898 70.8957 120.076 71.7397 121.941C71.9591 122.389 72.5837 122.591 72.9298 123.233C73.3349 124.077 73.6725 125.047 74.0354 125.621C74.3983 126.195 74.7106 126.246 74.6937 126.052Z" fill="#FFC727"/>
<path d="M78.0023 111.948C77.4167 111.696 76.8522 111.396 76.3143 111.054C75.7486 110.714 75.227 110.306 74.7613 109.838C74.7613 109.838 74.6685 109.838 74.7022 109.889C75.1114 110.431 75.6043 110.904 76.1623 111.29C76.7229 111.665 77.3505 111.929 78.0107 112.067C78.0264 112.065 78.0409 112.058 78.0512 112.046C78.0615 112.034 78.0667 112.019 78.0656 112.003C78.0644 111.988 78.0571 111.973 78.0453 111.963C78.0334 111.952 78.0179 111.947 78.0023 111.948Z" fill="#263238"/>
<path d="M74.3224 123.807C74.2296 123.655 74.103 123.528 74.0017 123.385C73.8822 123.223 73.783 123.047 73.7063 122.861C73.6016 122.498 73.4573 122.147 73.2758 121.815C73.0885 121.568 72.8733 121.345 72.6344 121.148C72.3481 120.941 72.14 120.644 72.0436 120.304H71.9761C72.0774 120.988 72.6091 121.401 72.9973 121.924C73.1947 122.283 73.3586 122.659 73.4868 123.047C73.6363 123.401 73.8969 123.698 74.2296 123.891C74.2718 123.916 74.3477 123.866 74.3224 123.807Z" fill="#263238"/>
<path d="M74.7106 121.258C74.4574 121.038 74.1958 120.844 73.9595 120.599C73.7231 120.355 73.5375 120.093 73.3434 119.831C73.1492 119.57 72.9973 119.291 72.8116 118.987C72.6259 118.684 72.3474 118.388 72.1449 118.059C72.1449 118.059 72.0605 118.059 72.0858 118.11C72.2968 118.439 72.4403 118.819 72.6344 119.156C72.8083 119.449 73 119.731 73.2083 120C73.4052 120.262 73.6256 120.505 73.8666 120.726C74.1079 120.958 74.3955 121.136 74.7106 121.249C74.7106 121.249 74.7275 121.275 74.7106 121.258Z" fill="#263238"/>
<path d="M75.1834 118.937C74.6484 118.614 74.1648 118.213 73.7486 117.747C73.3434 117.291 72.9552 116.81 72.5838 116.329C72.5838 116.329 72.4994 116.329 72.5248 116.329C72.8008 116.9 73.1497 117.434 73.5629 117.915C73.7636 118.152 73.9933 118.361 74.2465 118.54C74.5207 118.722 74.8118 118.878 75.1158 119.004C75.1158 119.004 75.2256 119.004 75.1834 118.937Z" fill="#263238"/>
<path d="M75.7406 116.692C75.4822 116.569 75.25 116.397 75.057 116.185C74.8206 115.966 74.5928 115.738 74.3733 115.502C74.1539 115.274 73.9344 115.063 73.7234 114.835C73.4955 114.621 73.3144 114.363 73.1917 114.075C73.1917 114.075 73.1157 114.075 73.1242 114.075C73.1904 114.383 73.3261 114.672 73.5209 114.919C73.709 115.219 73.9236 115.502 74.1623 115.763C74.3983 116.007 74.6492 116.235 74.9135 116.447C75.1367 116.651 75.416 116.783 75.7153 116.827C75.7241 116.828 75.7332 116.828 75.7421 116.826C75.7509 116.825 75.7593 116.821 75.7667 116.816C75.7742 116.811 75.7805 116.804 75.7855 116.797C75.7904 116.789 75.7938 116.781 75.7955 116.772C75.7971 116.763 75.797 116.754 75.7952 116.745C75.7933 116.736 75.7897 116.728 75.7846 116.72C75.7795 116.713 75.773 116.707 75.7655 116.702C75.7579 116.697 75.7495 116.693 75.7406 116.692Z" fill="#263238"/>
<path d="M75.96 113.94C75.7125 113.771 75.4761 113.594 75.2511 113.409C75.0316 113.214 74.8122 113.02 74.6012 112.818C74.3902 112.615 74.1454 112.396 73.9344 112.168C73.9344 112.168 73.85 112.168 73.8753 112.21C74.0361 112.476 74.2196 112.727 74.4239 112.961C74.6256 113.19 74.8428 113.404 75.0738 113.603C75.3028 113.802 75.5453 113.985 75.7997 114.151C76.0495 114.342 76.3372 114.477 76.6437 114.548C76.6506 114.543 76.6563 114.537 76.6603 114.53C76.6642 114.522 76.6663 114.514 76.6663 114.506C76.6663 114.497 76.6642 114.489 76.6603 114.482C76.6563 114.474 76.6506 114.468 76.6437 114.464C76.4324 114.268 76.2036 114.093 75.96 113.94Z" fill="#263238"/>
<path d="M79.5301 110.395C79.2601 110.159 78.9984 109.923 78.6861 109.703C78.3739 109.484 78.0869 109.29 77.7662 109.104C77.1604 108.732 76.515 108.429 75.8419 108.201C75.8419 108.201 75.7659 108.243 75.8419 108.268C77.0403 109.011 78.281 109.703 79.4795 110.463C79.4885 110.47 79.4997 110.472 79.5108 110.471C79.5219 110.469 79.5319 110.463 79.5386 110.454C79.5453 110.445 79.5482 110.434 79.5466 110.423C79.545 110.412 79.5391 110.402 79.5301 110.395Z" fill="#263238"/>
<path d="M80.5852 108.26C80.3245 108.033 80.0417 107.832 79.7412 107.661C79.0752 107.325 78.3729 107.068 77.648 106.893C77.5974 106.893 77.5721 106.943 77.648 106.96C78.2979 107.256 78.9478 107.543 79.5724 107.872C79.8762 108.041 80.1885 108.209 80.4754 108.404C80.7624 108.598 81.0072 108.859 81.3194 109.07C81.3194 109.07 81.3785 109.07 81.3194 109.07C81.1325 108.753 80.8826 108.477 80.5852 108.26Z" fill="#263238"/>
<path d="M82.3153 107.087C82.0569 106.854 81.7739 106.651 81.4713 106.479C80.919 106.144 80.3141 105.904 79.682 105.77C79.682 105.77 79.6229 105.829 79.682 105.846C80.2691 106.076 80.8341 106.358 81.37 106.69C81.6401 106.859 81.9102 107.045 82.214 107.23C82.5179 107.416 82.7289 107.652 83.0074 107.804C83.0074 107.804 83.0496 107.804 83.0074 107.804C82.8 107.544 82.5683 107.304 82.3153 107.087Z" fill="#263238"/>
<path d="M83.4883 105.753C83.2267 105.602 82.9481 105.458 82.6443 105.323C82.3804 105.175 82.096 105.067 81.8003 105.002V105.078L83.3364 105.981C83.7886 106.295 84.2072 106.654 84.5855 107.053C84.5855 107.053 84.6361 107.053 84.5855 107.053C84.3595 106.519 83.977 106.066 83.4883 105.753Z" fill="#263238"/>
<path d="M85.1171 105.129C84.6177 104.793 84.0593 104.556 83.4713 104.428C83.4291 104.428 83.4123 104.487 83.4713 104.504C84.0212 104.705 84.5365 104.989 84.999 105.348C85.4677 105.689 85.8979 106.079 86.2819 106.513C86.2819 106.513 86.3409 106.513 86.3241 106.513C86.0405 105.96 85.6262 105.485 85.1171 105.129Z" fill="#263238"/>
<path d="M88.8564 105.694C88.7013 105.539 88.5379 105.393 88.3669 105.255C88.1957 105.119 88.0152 104.995 87.8268 104.884C87.6326 104.766 87.4385 104.656 87.2528 104.53C87.2528 104.53 87.1684 104.572 87.2528 104.597C87.4504 104.712 87.6368 104.845 87.8099 104.994L88.2994 105.399L88.7974 105.804C88.9537 105.956 89.1201 106.097 89.2953 106.226C89.1697 106.033 89.0225 105.854 88.8564 105.694Z" fill="#263238"/>
<path d="M140.467 89.7256C140.115 93.1076 138.83 96.3252 136.756 99.0191C134.681 101.713 131.898 103.777 128.718 104.981C125.538 106.185 122.086 106.481 118.748 105.836C115.409 105.192 112.316 103.632 109.813 101.331L100.63 102.681L105.221 94.7474C104.169 92.1662 103.719 89.3793 103.905 86.5981C104.091 83.817 104.908 81.1148 106.294 78.6966C107.681 76.2784 109.6 74.2079 111.906 72.6421C114.212 71.0764 116.844 70.0566 119.603 69.6602C122.362 69.2638 125.175 69.5012 127.829 70.3543C130.482 71.2075 132.907 72.654 134.918 74.584C136.929 76.5141 138.474 78.8769 139.435 81.4932C140.397 84.1095 140.749 86.9105 140.467 89.6834V89.7256Z" fill="white"/>
<path d="M140.467 89.7256C140.109 93.1022 138.827 96.3147 136.762 99.0096C135.752 100.371 134.54 101.569 133.166 102.563C131.815 103.591 130.322 104.421 128.735 105.027C127.152 105.647 125.491 106.045 123.798 106.209C122.956 106.28 122.11 106.297 121.266 106.26C120.417 106.232 119.57 106.142 118.734 105.99C115.352 105.369 112.209 103.817 109.661 101.508L109.872 101.575L100.681 102.968L100.014 103.069L100.352 102.487L104.918 94.528V94.8487C103.838 92.2195 103.376 89.3776 103.568 86.5417C103.759 83.7059 104.6 80.9519 106.023 78.492C107.454 76.0453 109.419 73.9535 111.771 72.373C114.699 70.4434 118.114 69.3825 121.62 69.313C125.126 69.2435 128.58 70.1683 131.582 71.9803C134.585 73.7922 137.012 76.4174 138.585 79.5518C140.157 82.6863 140.81 86.2019 140.467 89.6919V89.7256ZM140.467 89.7256C140.76 86.9626 140.415 84.1692 139.458 81.5605C138.502 78.9518 136.959 76.5976 134.949 74.6791C132.939 72.7605 130.516 71.3289 127.866 70.4945C125.215 69.6601 122.409 69.4452 119.662 69.8663C116.935 70.2738 114.337 71.2986 112.066 72.8625C109.823 74.4387 107.948 76.4833 106.572 78.8549C105.223 81.2324 104.426 83.8836 104.243 86.6113C104.077 89.341 104.518 92.0735 105.534 94.6124L105.601 94.7728L105.517 94.9247L100.892 102.841L100.571 102.36L109.754 101.069H109.881L109.973 101.153C112.424 103.449 115.467 105.016 118.759 105.677C119.594 105.848 120.44 105.95 121.291 105.981C122.134 106.041 122.98 106.041 123.823 105.981C125.5 105.851 127.151 105.487 128.727 104.901C130.312 104.328 131.802 103.523 133.15 102.512C133.831 102.017 134.479 101.479 135.091 100.9C135.691 100.302 136.255 99.6677 136.779 99.0012C138.838 96.3072 140.114 93.0978 140.467 89.7256Z" fill="#263238"/>
<path d="M120.067 98.2839L112.235 90.3503L114.868 87.7507L119.443 92.3843L128.955 77.4708L132.077 79.4627L120.067 98.2839Z" fill="#FFC727"/>
</svg>
