<svg width="98" height="98" viewBox="0 0 98 98" fill="none" xmlns="http://www.w3.org/2000/svg">
<path d="M57.4955 60.3312C58.4456 62.2572 59.9198 63.8761 61.7487 65.0018C63.5776 66.1275 65.687 66.7144 67.8345 66.6951C72.1771 66.6951 74.9517 64.5238 74.9517 61.5256C74.9517 57.9333 72.1005 56.6593 67.323 54.5676L64.7015 53.4436C57.1402 50.2219 52.1147 46.1855 52.1147 37.6534C52.1147 29.792 58.1049 23.8109 67.4639 23.8109C70.5014 23.5905 73.5366 24.2704 76.1898 25.7656C78.843 27.2608 80.9966 29.5049 82.3813 32.2175L74.2198 37.4574C73.6854 36.1133 72.7546 34.9636 71.5512 34.1611C70.3477 33.3586 68.9286 32.9413 67.4823 32.9647C66.8519 32.9013 66.2152 32.9699 65.6128 33.1662C65.0104 33.3626 64.4555 33.6823 63.9835 34.105C63.5115 34.5277 63.1328 35.0441 62.8715 35.6213C62.6102 36.1985 62.4721 36.8238 62.4659 37.4574C62.4659 40.6026 64.4137 41.8735 68.8972 43.8213L71.5187 44.9421C80.4244 48.7611 85.45 52.6535 85.45 61.4061C85.45 70.8417 78.0387 76.0112 68.0825 76.0112C64.2044 76.2579 60.3377 75.3771 56.949 73.4752C53.5603 71.5732 50.7943 68.7314 48.9848 65.2925L57.4955 60.3312ZM20.476 61.25C22.1236 64.1716 23.6212 66.64 27.2135 66.64C30.6557 66.64 32.8301 65.2925 32.8301 60.0556V24.4234H43.31V60.2026C43.31 71.053 36.9461 75.9928 27.6606 75.9928C24.3806 76.1704 21.1237 75.3509 18.3184 73.6421C15.5131 71.9333 13.2908 69.4154 11.9438 66.4195L20.476 61.25Z" fill="url(#paint0_linear_31_273)"/>
<defs>
<linearGradient id="paint0_linear_31_273" x1="48.6969" y1="23.7703" x2="48.6969" y2="76.0518" gradientUnits="userSpaceOnUse">
<stop stop-color="#FFFDEA"/>
<stop offset="1" stop-color="#FFE400" stop-opacity="0.59"/>
</linearGradient>
</defs>
</svg>
