<svg width="121" height="20" viewBox="0 0 121 20" fill="none" xmlns="http://www.w3.org/2000/svg">
<rect x="0.5" y="0.5" width="120" height="19" rx="1.5" fill="white" stroke="#E7B306"/>
<path d="M0 2C0 0.895431 0.895431 0 2 0H20V20H2C0.895431 20 0 19.1046 0 18V2Z" fill="#E7B306"/>
<path d="M6.66 7.049C6.71133 6.37433 6.97167 5.84633 7.441 5.465C7.91033 5.08367 8.519 4.893 9.267 4.893C9.76567 4.893 10.1947 4.98467 10.554 5.168C10.9207 5.344 11.1957 5.586 11.379 5.894C11.5697 6.202 11.665 6.55033 11.665 6.939C11.665 7.39367 11.533 7.786 11.269 8.116C11.0123 8.446 10.675 8.65867 10.257 8.754V8.809C10.7337 8.92633 11.1113 9.15733 11.39 9.502C11.6687 9.84667 11.808 10.2977 11.808 10.855C11.808 11.273 11.7127 11.6507 11.522 11.988C11.3313 12.318 11.0453 12.5783 10.664 12.769C10.2827 12.9597 9.82433 13.055 9.289 13.055C8.51167 13.055 7.87367 12.8533 7.375 12.45C6.87633 12.0393 6.59767 11.46 6.539 10.712H7.507C7.55833 11.152 7.738 11.5113 8.046 11.79C8.354 12.0687 8.76467 12.208 9.278 12.208C9.79133 12.208 10.18 12.076 10.444 11.812C10.7153 11.5407 10.851 11.1923 10.851 10.767C10.851 10.217 10.6677 9.821 10.301 9.579C9.93433 9.337 9.38067 9.216 8.64 9.216H8.387V8.38H8.651C9.32567 8.37267 9.83533 8.26267 10.18 8.05C10.5247 7.83 10.697 7.49267 10.697 7.038C10.697 6.64933 10.5687 6.33767 10.312 6.103C10.0627 5.86833 9.70333 5.751 9.234 5.751C8.77933 5.751 8.41267 5.86833 8.134 6.103C7.85533 6.33767 7.69033 6.653 7.639 7.049H6.66Z" fill="white"/>
<path d="M32.079 6.355V14H30.825V6.355H32.079ZM40.0064 14H38.7524L34.9794 8.291V14H33.7254V6.344H34.9794L38.7524 12.042V6.344H40.0064V14ZM46.5921 6.355V7.378H44.5571V14H43.3031V7.378H41.2571V6.355H46.5921ZM49.1161 7.367V9.611H51.7561V10.634H49.1161V12.977H52.0861V14H47.8621V6.344H52.0861V7.367H49.1161ZM57.6017 14L55.8417 10.942H54.8847V14H53.6307V6.355H56.2707C56.8573 6.355 57.3523 6.45767 57.7557 6.663C58.1663 6.86833 58.4707 7.14333 58.6687 7.488C58.874 7.83267 58.9767 8.21767 58.9767 8.643C58.9767 9.14167 58.83 9.59633 58.5367 10.007C58.2507 10.4103 57.807 10.6853 57.2057 10.832L59.0977 14H57.6017ZM54.8847 9.941H56.2707C56.74 9.941 57.092 9.82367 57.3267 9.589C57.5687 9.35433 57.6897 9.039 57.6897 8.643C57.6897 8.247 57.5723 7.939 57.3377 7.719C57.103 7.49167 56.7473 7.378 56.2707 7.378H54.8847V9.941ZM68.6329 6.355V14H67.3789V8.764L65.0469 14H64.1779L61.8349 8.764V14H60.5809V6.355H61.9339L64.6179 12.35L67.2909 6.355H68.6329ZM71.5351 7.367V9.611H74.1751V10.634H71.5351V12.977H74.5051V14H70.2811V6.344H74.5051V7.367H71.5351ZM78.5466 6.355C79.3606 6.355 80.0719 6.51267 80.6806 6.828C81.2966 7.136 81.7696 7.58333 82.0996 8.17C82.4369 8.74933 82.6056 9.42767 82.6056 10.205C82.6056 10.9823 82.4369 11.657 82.0996 12.229C81.7696 12.801 81.2966 13.241 80.6806 13.549C80.0719 13.8497 79.3606 14 78.5466 14H76.0496V6.355H78.5466ZM78.5466 12.977C79.4413 12.977 80.1269 12.735 80.6036 12.251C81.0803 11.767 81.3186 11.085 81.3186 10.205C81.3186 9.31767 81.0803 8.62467 80.6036 8.126C80.1269 7.62733 79.4413 7.378 78.5466 7.378H77.3036V12.977H78.5466ZM85.1024 6.355V14H83.8484V6.355H85.1024ZM91.3578 12.438H88.1568L87.6068 14H86.2978L89.0368 6.344H90.4888L93.2278 14H91.9078L91.3578 12.438ZM91.0058 11.415L89.7628 7.862L88.5088 11.415H91.0058ZM90.8958 4.716L88.4648 5.915V4.991L90.8958 3.649V4.716ZM98.3898 14L96.6298 10.942H95.6728V14H94.4188V6.355H97.0588C97.6454 6.355 98.1404 6.45767 98.5438 6.663C98.9544 6.86833 99.2588 7.14333 99.4568 7.488C99.6621 7.83267 99.7648 8.21767 99.7648 8.643C99.7648 9.14167 99.6181 9.59633 99.3248 10.007C99.0388 10.4103 98.5951 10.6853 97.9938 10.832L99.8858 14H98.3898ZM95.6728 9.941H97.0588C97.5281 9.941 97.8801 9.82367 98.1148 9.589C98.3568 9.35433 98.4778 9.039 98.4778 8.643C98.4778 8.247 98.3604 7.939 98.1258 7.719C97.8911 7.49167 97.5354 7.378 97.0588 7.378H95.6728V9.941ZM102.623 6.355V14H101.369V6.355H102.623ZM107.756 14.077C107.045 14.077 106.389 13.912 105.787 13.582C105.193 13.2447 104.72 12.779 104.368 12.185C104.024 11.5837 103.851 10.909 103.851 10.161C103.851 9.413 104.024 8.742 104.368 8.148C104.72 7.554 105.193 7.092 105.787 6.762C106.389 6.42467 107.045 6.256 107.756 6.256C108.475 6.256 109.131 6.42467 109.725 6.762C110.327 7.092 110.8 7.554 111.144 8.148C111.489 8.742 111.661 9.413 111.661 10.161C111.661 10.909 111.489 11.5837 111.144 12.185C110.8 12.779 110.327 13.2447 109.725 13.582C109.131 13.912 108.475 14.077 107.756 14.077ZM107.756 12.988C108.262 12.988 108.713 12.8743 109.109 12.647C109.505 12.4123 109.813 12.0823 110.033 11.657C110.261 11.2243 110.374 10.7257 110.374 10.161C110.374 9.59633 110.261 9.10133 110.033 8.676C109.813 8.25067 109.505 7.92433 109.109 7.697C108.713 7.46967 108.262 7.356 107.756 7.356C107.25 7.356 106.799 7.46967 106.403 7.697C106.007 7.92433 105.696 8.25067 105.468 8.676C105.248 9.10133 105.138 9.59633 105.138 10.161C105.138 10.7257 105.248 11.2243 105.468 11.657C105.696 12.0823 106.007 12.4123 106.403 12.647C106.799 12.8743 107.25 12.988 107.756 12.988Z" fill="#E7B306"/>
</svg>
