<svg width="77" height="20" viewBox="0 0 77 20" fill="none" xmlns="http://www.w3.org/2000/svg">
<rect x="0.5" y="0.5" width="76" height="19" rx="1.5" fill="white" stroke="#E5E5E5"/>
<path d="M0 2C0 0.895431 0.895431 0 2 0H20V20H2C0.895431 20 0 19.1046 0 18V2Z" fill="#036AB1"/>
<path d="M6.561 12.197C7.49233 11.449 8.222 10.8367 8.75 10.36C9.278 9.876 9.72167 9.37367 10.081 8.853C10.4477 8.325 10.631 7.808 10.631 7.302C10.631 6.82533 10.5137 6.45133 10.279 6.18C10.0517 5.90133 9.68133 5.762 9.168 5.762C8.66933 5.762 8.28067 5.91967 8.002 6.235C7.73067 6.543 7.584 6.95733 7.562 7.478H6.594C6.62333 6.65667 6.87267 6.02233 7.342 5.575C7.81133 5.12767 8.41633 4.904 9.157 4.904C9.91233 4.904 10.51 5.113 10.95 5.531C11.3973 5.949 11.621 6.52467 11.621 7.258C11.621 7.86667 11.4377 8.46067 11.071 9.04C10.7117 9.612 10.301 10.118 9.839 10.558C9.377 10.9907 8.78667 11.4967 8.068 12.076H11.852V12.912H6.561V12.197Z" fill="white"/>
<path d="M34.994 6.355V11.866C34.994 12.548 34.785 13.087 34.367 13.483C33.9563 13.879 33.4137 14.077 32.739 14.077C32.0643 14.077 31.518 13.879 31.1 13.483C30.6893 13.087 30.484 12.548 30.484 11.866H31.749C31.7563 12.2033 31.8407 12.471 32.002 12.669C32.1707 12.867 32.4163 12.966 32.739 12.966C33.0617 12.966 33.3073 12.867 33.476 12.669C33.6447 12.4637 33.729 12.196 33.729 11.866V6.355H34.994ZM38.277 6.355V11.228C38.277 11.8073 38.4273 12.2437 38.728 12.537C39.036 12.8303 39.4613 12.977 40.004 12.977C40.554 12.977 40.9793 12.8303 41.28 12.537C41.588 12.2437 41.742 11.8073 41.742 11.228V6.355H42.996V11.206C42.996 11.8293 42.8603 12.3573 42.589 12.79C42.3177 13.2227 41.9547 13.5453 41.5 13.758C41.0453 13.9707 40.543 14.077 39.993 14.077C39.443 14.077 38.9407 13.9707 38.486 13.758C38.0387 13.5453 37.683 13.2227 37.419 12.79C37.155 12.3573 37.023 11.8293 37.023 11.206V6.355H38.277ZM50.9097 14H49.6557L45.8827 8.291V14H44.6287V6.344H45.8827L49.6557 12.042V6.344H50.9097V14ZM53.8104 6.355V14H52.5564V6.355H53.8104ZM58.9438 14.077C58.2325 14.077 57.5762 13.912 56.9748 13.582C56.3808 13.2447 55.9078 12.779 55.5558 12.185C55.2112 11.5837 55.0388 10.909 55.0388 10.161C55.0388 9.413 55.2112 8.742 55.5558 8.148C55.9078 7.554 56.3808 7.092 56.9748 6.762C57.5762 6.42467 58.2325 6.256 58.9438 6.256C59.6625 6.256 60.3188 6.42467 60.9128 6.762C61.5142 7.092 61.9872 7.554 62.3318 8.148C62.6765 8.742 62.8488 9.413 62.8488 10.161C62.8488 10.909 62.6765 11.5837 62.3318 12.185C61.9872 12.779 61.5142 13.2447 60.9128 13.582C60.3188 13.912 59.6625 14.077 58.9438 14.077ZM58.9438 12.988C59.4498 12.988 59.9008 12.8743 60.2968 12.647C60.6928 12.4123 61.0008 12.0823 61.2208 11.657C61.4482 11.2243 61.5618 10.7257 61.5618 10.161C61.5618 9.59633 61.4482 9.10133 61.2208 8.676C61.0008 8.25067 60.6928 7.92433 60.2968 7.697C59.9008 7.46967 59.4498 7.356 58.9438 7.356C58.4378 7.356 57.9868 7.46967 57.5908 7.697C57.1948 7.92433 56.8832 8.25067 56.6558 8.676C56.4358 9.10133 56.3258 9.59633 56.3258 10.161C56.3258 10.7257 56.4358 11.2243 56.6558 11.657C56.8832 12.0823 57.1948 12.4123 57.5908 12.647C57.9868 12.8743 58.4378 12.988 58.9438 12.988ZM68.0538 14L66.2938 10.942H65.3368V14H64.0828V6.355H66.7228C67.3095 6.355 67.8045 6.45767 68.2078 6.663C68.6185 6.86833 68.9228 7.14333 69.1208 7.488C69.3261 7.83267 69.4288 8.21767 69.4288 8.643C69.4288 9.14167 69.2821 9.59633 68.9888 10.007C68.7028 10.4103 68.2591 10.6853 67.6578 10.832L69.5498 14H68.0538ZM65.3368 9.941H66.7228C67.1921 9.941 67.5441 9.82367 67.7788 9.589C68.0208 9.35433 68.1418 9.039 68.1418 8.643C68.1418 8.247 68.0245 7.939 67.7898 7.719C67.5551 7.49167 67.1995 7.378 66.7228 7.378H65.3368V9.941Z" fill="#036AB1"/>
</svg>
